<svg width="1920" height="671" viewBox="0 0 1920 671" fill="none" xmlns="http://www.w3.org/2000/svg">
<path d="M-136 126C-107.333 85 -30.4 3 48 3C126.4 3 169.004 112.981 206 186.302C242.996 259.622 352.317 491.521 434.938 491.521C538.214 491.521 608.977 601.888 737.116 601.888C865.254 601.888 975.522 634.752 1097.61 614.29C1219.7 593.829 1222.95 405.261 1232.46 357.45C1260.39 216.994 1328.08 136.715 1370.16 100.633C1412.23 64.5512 1431.36 3 1475.35 3C1608.16 3 1604.17 256.656 1684 336.225C1754 406 1765.6 532 1812 540C1870 550 1984 668 2096 668" stroke="url(#paint0_linear)" stroke-width="5"/>
<defs>
<linearGradient id="paint0_linear" x1="980" y1="3" x2="980" y2="668" gradientUnits="userSpaceOnUse">
<stop stop-color="#F91DF0"/>
<stop offset="0.661458" stop-color="#56CCF2"/>
</linearGradient>
</defs>
</svg>
