<svg width="76" height="75" viewBox="0 0 76 75" fill="none" xmlns="http://www.w3.org/2000/svg">
<g clip-path="url(#clip0)">
<path fill-rule="evenodd" clip-rule="evenodd" d="M69.204 0H49.9238C47.2785 0 45.1265 2.152 45.1265 4.79736V13.4906C41.5111 8.29731 35.4991 4.89111 28.7056 4.89111H23.7939C18.0504 4.89111 12.7013 7.9147 9.72485 12.8115C5.68555 14.078 2.98657 17.8405 3.10933 22.1187L3.38677 31.7054C2.53232 32.5069 1.99707 33.6447 1.99707 34.9059V35.9372C1.99707 38.3571 3.96641 40.3258 6.38721 40.3258H9.33227C10.082 42.1802 11.1729 43.9103 12.5876 45.4866L11.6087 46.8423L11.5708 46.8947L11.5264 46.9562C10.062 48.9842 7.74719 52.1898 7.5623 52.4461C7.48276 52.5564 7.42432 52.6808 7.39004 52.8123L2.32271 72.3064C2.15381 72.9561 2.29238 73.6334 2.70312 74.1645C3.11372 74.6955 3.73438 75.0001 4.40557 75.0001H45.2744C46.0071 75.0001 46.7135 74.6925 47.2125 74.1562C47.7118 73.6198 47.9681 72.8928 47.9155 72.1604L47.4995 66.4657C47.3951 65.0244 47.0125 63.6451 46.3621 62.366C46.0868 61.8252 45.4253 61.6096 44.8848 61.8847C44.3439 62.1596 44.1285 62.8211 44.4034 63.362C44.9205 64.3789 45.2248 65.4765 45.308 66.6252L45.724 72.3193C45.7363 72.4901 45.6541 72.6059 45.6043 72.6595C45.5545 72.7131 45.4451 72.803 45.2744 72.803H40.2071V68.314C40.2071 67.7073 39.7153 67.2154 39.1084 67.2154C38.5016 67.2154 38.0098 67.7073 38.0098 68.314V72.8027H13.9544L16.7577 62.0191C16.7669 61.9837 16.7989 61.9589 16.8355 61.9589H21.6896C22.6747 61.9589 23.6032 61.7137 24.4193 61.2829C25.1248 61.4109 25.8475 61.4767 26.5742 61.4767C29.6554 61.4767 32.5958 60.2997 34.7483 58.2259L34.7524 58.2267L34.782 58.2328L34.8093 58.2383C34.8974 58.2559 34.9863 58.2697 35.5438 58.3566L35.544 58.3567C35.9944 58.4269 36.7505 58.5447 38.0589 58.7506C39.2521 58.9371 40.3697 59.3618 41.381 60.0127C41.565 60.1313 41.7709 60.1878 41.9747 60.1878C42.3358 60.1878 42.6895 60.01 42.8995 59.6837C43.2279 59.1737 43.0805 58.4937 42.5703 58.1653C41.2999 57.3473 39.8961 56.814 38.3986 56.5799C37.1926 56.3777 36.4552 56.2697 35.9708 56.1988L35.9705 56.1988L35.9703 56.1987C35.3229 56.104 35.1278 56.0754 34.8696 55.9762C34.0766 55.6702 33.5343 54.9152 33.5207 54.0338C34.8198 53.4762 35.7368 52.2064 35.7484 50.7325C35.752 50.3271 35.6889 49.932 35.5659 49.5584C38.1646 48.0179 41.8909 45.1024 43.8173 40.3257H45.8853C48.3052 40.3257 50.2739 38.3569 50.2739 35.937V34.9058C50.2739 33.5569 49.6621 32.3486 48.7021 31.5426V28.7159C49.0988 28.8205 49.5096 28.875 49.924 28.875H53.3838C53.7835 28.875 54.1089 29.2002 54.1089 29.6001V32.7202C54.1089 33.4958 54.5831 34.1591 55.3171 34.4101C55.5125 34.4769 55.7113 34.5092 55.9067 34.5092C56.4452 34.5092 56.9582 34.2634 57.3059 33.8142L60.9409 29.1306C61.0672 28.9682 61.2573 28.875 61.4624 28.875H69.2056C71.8509 28.875 74.0029 26.723 74.0029 24.0776V4.79736C74.0029 2.152 71.8502 0 69.204 0ZM4.19434 35.937V34.9058C4.19434 33.6967 5.17798 32.7129 6.38721 32.7129H8.16992C8.09434 34.6232 8.14385 36.1963 8.62095 38.1284H6.38721C5.17798 38.1284 4.19434 37.1454 4.19434 35.937ZM26.612 59.2784C27.2085 58.3601 27.5565 57.2663 27.5565 56.0921V54.3365H31.3354C31.4188 55.4339 31.9065 56.4202 32.6633 57.1373C30.9929 58.5015 28.8522 59.2698 26.612 59.2784ZM32.0476 52.1391H27.3078C26.2333 52.1391 25.3593 53.0131 25.3593 54.0876V56.0919C25.3593 58.1153 23.7131 59.7617 21.6896 59.7617H16.8355C15.7985 59.7617 14.8921 60.4626 14.6312 61.4663L11.6841 72.8027H4.46416L9.46484 53.5645L11.1991 51.1627L11.2167 51.1383C13.4957 47.9821 17.2419 42.794 17.8771 41.913C18.1052 41.5969 18.4426 41.3887 18.827 41.3271C19.2159 41.2645 19.6083 41.359 19.9298 41.5923L19.9834 41.6314C20.3325 41.8847 20.5389 42.2764 20.5503 42.7151C20.5603 43.0124 20.475 43.2983 20.3026 43.5437L18.2548 46.4695C17.8732 47.013 17.8265 47.7167 18.1326 48.306C18.4391 48.8956 19.0424 49.262 19.7073 49.262H32.1125C32.497 49.262 32.8585 49.4118 33.1307 49.6838C33.4052 49.9585 33.5546 50.3238 33.5511 50.7139C33.545 51.4998 32.8704 52.1391 32.0476 52.1391ZM48.0767 35.937C48.0767 37.1454 47.0936 38.1284 45.8853 38.1284H44.529C44.8464 36.8429 45.0091 35.5156 45.0091 34.1646C45.0091 33.6747 44.9987 33.1898 44.98 32.7129H45.8853C47.0936 32.7129 48.0767 33.6967 48.0767 34.9058V35.937ZM45.8853 30.5156H44.8228C44.694 29.2816 44.4978 28.0866 44.2351 26.952C43.7218 24.7437 41.773 23.1119 39.4956 22.9837C35.2391 22.7451 30.8979 21.6415 26.9406 19.7919C25.8326 19.2751 24.4944 19.632 23.8275 20.6222C23.5757 20.9963 23.0466 21.2685 22.5748 21.2578C21.8056 21.2489 20.9598 20.8263 19.9136 19.9282C19.2081 19.3214 18.4972 18.6111 17.7412 17.7574C17.1976 17.142 16.4155 16.7887 15.5955 16.788H15.5927C14.7775 16.788 14 17.1375 13.4589 17.7475C12.4017 18.9404 11.4846 20.3101 10.733 21.818C10.4623 22.361 10.683 23.0206 11.226 23.2915C11.7692 23.5622 12.4287 23.3414 12.6995 22.7984C13.3653 21.4627 14.174 20.2537 15.1032 19.2053C15.2728 19.0141 15.4824 18.9854 15.5929 18.9854C15.7062 18.9872 15.9201 19.0148 16.0955 19.2133C16.919 20.1432 17.6993 20.9221 18.4817 21.5949C19.4007 22.3838 20.8224 23.4352 22.5487 23.4551C23.7714 23.4675 24.9835 22.8396 25.65 21.8496C25.7164 21.751 25.8787 21.7213 26.011 21.783C30.2189 23.7495 34.8393 24.9233 39.3723 25.1776C40.6815 25.2513 41.8011 26.1854 42.0947 27.4485C42.4033 28.782 42.6147 30.2102 42.7227 31.6961C42.7818 32.4885 42.8119 33.319 42.8119 34.1647C42.8119 35.7866 42.5463 37.3677 42.0225 38.8645C40.3811 43.5571 36.7077 46.3603 34.2689 47.7725C33.6477 47.3131 32.8991 47.0648 32.1125 47.0648H20.5202L22.1015 44.8055C22.5494 44.168 22.7724 43.4197 22.7464 42.6502C22.7177 41.5308 22.1809 40.5113 21.275 39.854L21.2215 39.815C20.4229 39.2357 19.4489 39.0025 18.4791 39.1578C17.5139 39.3126 16.6673 39.8347 16.095 40.6279C15.6816 41.2012 14.8713 42.3237 13.9076 43.6586C12.6607 42.1885 11.7273 40.5809 11.1271 38.8644C10.2813 36.4482 10.2342 34.2782 10.4271 31.6944C10.5377 30.1771 10.757 28.7167 11.0788 27.3538C11.2183 26.7633 10.8526 26.1715 10.262 26.032C9.67153 25.8926 9.07974 26.2582 8.94028 26.8488C8.66475 28.0157 8.46011 29.246 8.3271 30.5159H6.38721C6.10186 30.5159 5.82324 30.5442 5.55283 30.5965L5.30571 22.0557C5.20786 18.6502 7.43735 15.6705 10.7274 14.8093C11.0132 14.7344 11.2569 14.5477 11.4034 14.291C13.9385 9.84814 18.6863 7.08838 23.7939 7.08838H28.7056C38.5202 7.08838 46.5049 15.0731 46.5049 24.8877V30.5602C46.3023 30.5314 46.0956 30.5156 45.8853 30.5156ZM71.8057 24.0776C71.8057 25.5114 70.6392 26.6777 69.2056 26.6777H61.4624C60.5744 26.6777 59.7523 27.08 59.206 27.7824L56.3062 31.5187V29.6001C56.3062 27.9888 54.9953 26.6777 53.3838 26.6777H49.9238C49.4891 26.6777 49.0745 26.5724 48.702 26.3725V24.8877C48.702 22.3143 48.213 19.853 47.3237 17.5915V4.79736C47.3237 3.36357 48.4902 2.19727 49.9238 2.19727H69.204C70.6385 2.19727 71.8057 3.36357 71.8057 4.79736V24.0776ZM54.4702 10.4618C54.4702 7.65264 56.7554 5.36734 59.5645 5.36734C62.3735 5.36734 64.6589 7.65264 64.6589 10.4618C64.6589 13.1357 62.5879 15.3352 59.9659 15.5405V18.2162C59.9659 18.823 59.4741 19.3149 58.8672 19.3149C58.2603 19.3149 57.7686 18.823 57.7686 18.2162V14.4576C57.7686 13.8508 58.2603 13.3589 58.8672 13.3589H59.5645C61.1621 13.3589 62.4617 12.0593 62.4617 10.4618C62.4617 8.86422 61.1621 7.56461 59.5645 7.56461C57.9671 7.56461 56.6675 8.86422 56.6675 10.4618C56.6675 11.0685 56.1757 11.5604 55.5688 11.5604C54.962 11.5604 54.4702 11.0685 54.4702 10.4618ZM57.7686 22.0875C57.7686 21.4808 58.2603 20.9889 58.8672 20.9889C59.4739 20.9889 59.9658 21.4808 59.9658 22.0875V22.4093C59.9658 23.0161 59.4741 23.508 58.8672 23.508C58.2603 23.508 57.7686 23.0161 57.7686 22.4093V22.0875ZM22.1221 34.154C22.1221 34.7607 21.6302 35.2526 21.0234 35.2526C20.4167 35.2526 19.9248 34.7607 19.9248 34.154V32.9273C19.9248 32.3206 20.4167 31.8287 21.0234 31.8287C21.6302 31.8287 22.1221 32.3206 22.1221 32.9273V34.154ZM37.441 35.2526C38.0479 35.2526 38.5397 34.7607 38.5397 34.154V32.9273C38.5397 32.3206 38.0479 31.8287 37.441 31.8287C36.8343 31.8287 36.3424 32.3206 36.3424 32.9273V34.154C36.3424 34.7607 36.8343 35.2526 37.441 35.2526ZM31.7282 40.658C30.2303 39.7843 28.8353 39.7843 27.3374 40.658C26.8134 40.9637 26.1405 40.7868 25.8347 40.2625C25.529 39.7386 25.7061 39.0658 26.2302 38.76C28.3907 37.4997 30.6747 37.4997 32.8352 38.76C33.3593 39.0658 33.5364 39.7384 33.2307 40.2625C33.0265 40.6125 32.6587 40.8077 32.2808 40.8077C32.0927 40.8079 31.9023 40.7596 31.7282 40.658Z" fill="url(#paint0_linear)"/>
</g>
<defs>
<linearGradient id="paint0_linear" x1="1.99707" y1="0" x2="76.935" y2="71.9461" gradientUnits="userSpaceOnUse">
<stop stop-color="#F91DF0"/>
<stop offset="0.677083" stop-color="#56CCF2"/>
</linearGradient>
<clipPath id="clip0">
<rect width="75" height="75" fill="white" transform="translate(0.5)"/>
</clipPath>
</defs>
</svg>
