<svg width="76" height="75" viewBox="0 0 76 75" fill="none" xmlns="http://www.w3.org/2000/svg">
<path fill-rule="evenodd" clip-rule="evenodd" d="M69.6406 2.34375H6.35938C5.42697 2.34375 4.53276 2.71415 3.87345 3.37345C3.21415 4.03276 2.84375 4.92697 2.84375 5.85938V69.1406C2.84375 70.073 3.21415 70.9672 3.87345 71.6265C4.53276 72.2859 5.42697 72.6562 6.35938 72.6562H69.6406C70.573 72.6562 71.4672 72.2859 72.1265 71.6265C72.7859 70.9672 73.1562 70.073 73.1562 69.1406V5.85938C73.1562 4.92697 72.7859 4.03276 72.1265 3.37345C71.4672 2.71415 70.573 2.34375 69.6406 2.34375ZM6.35938 4.6875H69.6406C69.9514 4.6875 70.2495 4.81097 70.4693 5.03073C70.689 5.2505 70.8125 5.54857 70.8125 5.85938V11.7188H5.1875V5.85938C5.1875 5.54857 5.31097 5.2505 5.53073 5.03073C5.7505 4.81097 6.04857 4.6875 6.35938 4.6875ZM70.4693 69.9693C70.2495 70.189 69.9514 70.3125 69.6406 70.3125H6.35938C6.04857 70.3125 5.7505 70.189 5.53073 69.9693C5.31097 69.7495 5.1875 69.4514 5.1875 69.1406V14.0625H70.8125V69.1406C70.8125 69.4514 70.689 69.7495 70.4693 69.9693ZM8.70312 9.375H9.875C10.1858 9.375 10.4839 9.25153 10.7036 9.03177C10.9234 8.812 11.0469 8.51393 11.0469 8.20312C11.0469 7.89232 10.9234 7.59425 10.7036 7.37448C10.4839 7.15472 10.1858 7.03125 9.875 7.03125H8.70312C8.39232 7.03125 8.09425 7.15472 7.87448 7.37448C7.65472 7.59425 7.53125 7.89232 7.53125 8.20312C7.53125 8.51393 7.65472 8.812 7.87448 9.03177C8.09425 9.25153 8.39232 9.375 8.70312 9.375ZM15.7344 9.375H14.5625C14.2517 9.375 13.9536 9.25153 13.7339 9.03177C13.5141 8.812 13.3906 8.51393 13.3906 8.20312C13.3906 7.89232 13.5141 7.59425 13.7339 7.37448C13.9536 7.15472 14.2517 7.03125 14.5625 7.03125H15.7344C16.0452 7.03125 16.3432 7.15472 16.563 7.37448C16.7828 7.59425 16.9062 7.89232 16.9062 8.20312C16.9062 8.51393 16.7828 8.812 16.563 9.03177C16.3432 9.25153 16.0452 9.375 15.7344 9.375ZM20.4219 9.375H21.5938C21.9046 9.375 22.2026 9.25153 22.4224 9.03177C22.6422 8.812 22.7656 8.51393 22.7656 8.20312C22.7656 7.89232 22.6422 7.59425 22.4224 7.37448C22.2026 7.15472 21.9046 7.03125 21.5938 7.03125H20.4219C20.1111 7.03125 19.813 7.15472 19.5932 7.37448C19.3735 7.59425 19.25 7.89232 19.25 8.20312C19.25 8.51393 19.3735 8.812 19.5932 9.03177C19.813 9.25153 20.1111 9.375 20.4219 9.375ZM37.1714 21.437C37.3911 21.2172 37.6892 21.0938 38 21.0938C38.3108 21.0938 38.6089 21.2172 38.8286 21.437C39.0484 21.6568 39.1719 21.9548 39.1719 22.2656V26.9531C39.1719 27.2639 39.0484 27.562 38.8286 27.7818C38.6089 28.0015 38.3108 28.125 38 28.125C37.6892 28.125 37.3911 28.0015 37.1714 27.7818C36.9516 27.562 36.8281 27.2639 36.8281 26.9531V22.2656C36.8281 21.9548 36.9516 21.6568 37.1714 21.437ZM32.8836 28.6383C32.96 28.7726 33.0622 28.8905 33.1843 28.9852C33.3064 29.0799 33.4461 29.1495 33.5953 29.19C33.7444 29.2305 33.9001 29.2411 34.0534 29.2212C34.2066 29.2013 34.3544 29.1512 34.4883 29.0739C34.6221 28.9967 34.7393 28.8937 34.8332 28.7709C34.9271 28.6481 34.9958 28.508 35.0353 28.3586C35.0748 28.2092 35.0843 28.0534 35.0634 27.9003C35.0424 27.7472 34.9914 27.5997 34.9133 27.4664L32.5695 23.407C32.4931 23.2727 32.3909 23.1548 32.2688 23.0601C32.1466 22.9654 32.007 22.8958 31.8578 22.8553C31.7087 22.8148 31.553 22.8042 31.3997 22.8241C31.2465 22.8441 31.0987 22.8941 30.9648 22.9714C30.831 23.0486 30.7138 23.1516 30.6199 23.2744C30.526 23.3972 30.4573 23.5373 30.4178 23.6867C30.3783 23.8361 30.3688 23.9919 30.3897 24.145C30.4106 24.2981 30.4617 24.4456 30.5398 24.5789L32.8836 28.6383ZM30.3088 32.0695L26.2506 29.7258C26.1163 29.6494 25.9984 29.5472 25.9037 29.4251C25.809 29.3029 25.7394 29.1632 25.6989 29.0141C25.6584 28.865 25.6478 28.7093 25.6677 28.556C25.6877 28.4028 25.7377 28.255 25.815 28.1211C25.8922 27.9873 25.9952 27.87 26.118 27.7762C26.2408 27.6823 26.3809 27.6136 26.5303 27.5741C26.6797 27.5346 26.8355 27.5251 26.9886 27.546C27.1417 27.5669 27.2892 27.6179 27.4225 27.6961L31.4807 30.0399C31.6151 30.1162 31.733 30.2184 31.8277 30.3406C31.9223 30.4627 31.9919 30.6024 32.0324 30.7515C32.0729 30.9007 32.0835 31.0564 32.0636 31.2096C32.0437 31.3629 31.9936 31.5107 31.9164 31.6445C31.8391 31.7784 31.7361 31.8956 31.6133 31.9895C31.4906 32.0834 31.3504 32.152 31.201 32.1915C31.0516 32.231 30.8959 32.2406 30.7427 32.2197C30.5896 32.1987 30.4422 32.1477 30.3088 32.0695ZM25.1094 36.3281H29.7969C30.1077 36.3281 30.4057 36.2047 30.6255 35.9849C30.8453 35.7651 30.9688 35.4671 30.9688 35.1562C30.9688 34.8454 30.8453 34.5474 30.6255 34.3276C30.4057 34.1078 30.1077 33.9844 29.7969 33.9844H25.1094C24.7986 33.9844 24.5005 34.1078 24.2807 34.3276C24.061 34.5474 23.9375 34.8454 23.9375 35.1562C23.9375 35.4671 24.061 35.7651 24.2807 35.9849C24.5005 36.2047 24.7986 36.3281 25.1094 36.3281ZM26.2506 40.5867L30.3088 38.243C30.4422 38.1648 30.5896 38.1138 30.7427 38.0928C30.8959 38.0719 31.0516 38.0815 31.201 38.121C31.3504 38.1605 31.4906 38.2291 31.6133 38.323C31.7361 38.4169 31.8391 38.5341 31.9164 38.668C31.9936 38.8018 32.0437 38.9496 32.0636 39.1029C32.0835 39.2561 32.0729 39.4118 32.0324 39.561C31.9919 39.7101 31.9223 39.8498 31.8277 39.9719C31.733 40.0941 31.6151 40.1963 31.4807 40.2726L27.4225 42.6164C27.2892 42.6946 27.1417 42.7456 26.9886 42.7665C26.8355 42.7874 26.6797 42.7779 26.5303 42.7384C26.3809 42.6989 26.2408 42.6302 26.118 42.5363C25.9952 42.4425 25.8922 42.3252 25.815 42.1914C25.7377 42.0575 25.6877 41.9097 25.6677 41.7565C25.6478 41.6032 25.6584 41.4475 25.6989 41.2984C25.7394 41.1492 25.809 41.0096 25.9037 40.8874C25.9984 40.7653 26.1163 40.6631 26.2506 40.5867ZM32.5695 46.9054L34.9133 42.8461C34.9914 42.7128 35.0424 42.5653 35.0634 42.4122C35.0843 42.259 35.0748 42.1033 35.0353 41.9539C34.9958 41.8045 34.9271 41.6643 34.8332 41.5416C34.7393 41.4188 34.6221 41.3158 34.4883 41.2385C34.3544 41.1613 34.2066 41.1112 34.0534 41.0913C33.9001 41.0714 33.7444 41.082 33.5953 41.1225C33.4461 41.163 33.3064 41.2326 33.1843 41.3273C33.0622 41.4219 32.96 41.5399 32.8836 41.6742L30.5398 45.7336C30.4617 45.8669 30.4106 46.0144 30.3897 46.1675C30.3688 46.3206 30.3783 46.4764 30.4178 46.6258C30.4573 46.7752 30.526 46.9153 30.6199 47.0381C30.7138 47.1608 30.831 47.2638 30.9648 47.3411C31.0987 47.4184 31.2465 47.4684 31.3997 47.4883C31.553 47.5083 31.7087 47.4977 31.8578 47.4572C32.007 47.4167 32.1466 47.3471 32.2688 47.2524C32.3909 47.1577 32.4931 47.0398 32.5695 46.9054ZM37.1714 42.5307C37.3911 42.311 37.6892 42.1875 38 42.1875C38.3108 42.1875 38.6089 42.311 38.8286 42.5307C39.0484 42.7505 39.1719 43.0486 39.1719 43.3594V48.0469C39.1719 48.3577 39.0484 48.6557 38.8286 48.8755C38.6089 49.0953 38.3108 49.2188 38 49.2188C37.6892 49.2188 37.3911 49.0953 37.1714 48.8755C36.9516 48.6557 36.8281 48.3577 36.8281 48.0469V43.3594C36.8281 43.0486 36.9516 42.7505 37.1714 42.5307ZM45.0312 47.3355C45.1646 47.2586 45.2816 47.1561 45.3754 47.0339C45.4692 46.9117 45.5379 46.7723 45.5778 46.6235C45.6176 46.4747 45.6277 46.3195 45.6075 46.1668C45.5873 46.0141 45.5373 45.8669 45.4601 45.7336L43.1164 41.6742C43.04 41.5399 42.9378 41.4219 42.8157 41.3273C42.6935 41.2326 42.5538 41.163 42.4047 41.1225C42.2556 41.082 42.0999 41.0714 41.9466 41.0913C41.7934 41.1112 41.6455 41.1613 41.5117 41.2385C41.3779 41.3158 41.2606 41.4188 41.1668 41.5416C41.0729 41.6643 41.0042 41.8045 40.9647 41.9539C40.9252 42.1033 40.9156 42.2591 40.9366 42.4122C40.9575 42.5653 41.0085 42.7128 41.0867 42.8461L43.4304 46.9055C43.5073 47.0388 43.6097 47.1558 43.7317 47.2495C43.8538 47.3433 43.9931 47.4122 44.1417 47.4521C44.2904 47.4921 44.4455 47.5023 44.5981 47.4823C44.7507 47.4623 44.8979 47.4124 45.0312 47.3355ZM45.6898 38.243L49.7492 40.5867C49.8835 40.6631 50.0015 40.7653 50.0961 40.8874C50.1908 41.0096 50.2604 41.1493 50.3009 41.2984C50.3414 41.4476 50.352 41.6032 50.3321 41.7565C50.3122 41.9098 50.2621 42.0576 50.1848 42.1914C50.1076 42.3252 50.0046 42.4425 49.8818 42.5364C49.7591 42.6302 49.6189 42.6989 49.4695 42.7384C49.3201 42.7779 49.1644 42.7875 49.0112 42.7665C48.8581 42.7456 48.7106 42.6946 48.5773 42.6164L44.5179 40.2727C44.251 40.1161 44.0567 39.8604 43.9776 39.5612C43.8986 39.2621 43.941 38.9437 44.0957 38.6757C44.2505 38.4078 44.5049 38.2118 44.8036 38.1308C45.1022 38.0497 45.4208 38.09 45.6898 38.243ZM45.0312 35.1562C45.0312 35.4671 45.1547 35.7651 45.3745 35.9849C45.5943 36.2047 45.8923 36.3281 46.2031 36.3281H50.8906C51.2014 36.3281 51.4995 36.2047 51.7193 35.9849C51.939 35.7651 52.0625 35.4671 52.0625 35.1562C52.0625 34.8454 51.939 34.5474 51.7193 34.3276C51.4995 34.1078 51.2014 33.9844 50.8906 33.9844H46.2031C45.8923 33.9844 45.5943 34.1078 45.3745 34.3276C45.1547 34.5474 45.0312 34.8454 45.0312 35.1562ZM44.8053 32.1866C44.5051 32.1062 44.2492 31.9098 44.0938 31.6406C43.9384 31.3715 43.8963 31.0516 43.9767 30.7514C44.0571 30.4512 44.2535 30.1953 44.5227 30.0399L48.582 27.6961C48.7154 27.6179 48.8628 27.5669 49.016 27.546C49.1691 27.5251 49.3248 27.5346 49.4742 27.5741C49.6237 27.6136 49.7638 27.6823 49.8866 27.7762C50.0093 27.87 50.1123 27.9873 50.1896 28.1211C50.2669 28.255 50.3169 28.4028 50.3368 28.556C50.3567 28.7093 50.3461 28.865 50.3056 29.0141C50.2652 29.1633 50.1956 29.3029 50.1009 29.4251C50.0062 29.5472 49.8883 29.6494 49.7539 29.7258L45.6945 32.0695C45.4254 32.2249 45.1055 32.2671 44.8053 32.1866ZM41.5156 29.0625C41.7847 29.2179 42.1046 29.26 42.4048 29.1796C42.705 29.0991 42.961 28.9027 43.1164 28.6336L45.4601 24.5742C45.5383 24.4409 45.5893 24.2934 45.6102 24.1403C45.6312 23.9872 45.6216 23.8314 45.5821 23.682C45.5426 23.5326 45.4739 23.3925 45.3801 23.2697C45.2862 23.1469 45.169 23.0439 45.0351 22.9667C44.9013 22.8894 44.7535 22.8394 44.6002 22.8194C44.447 22.7995 44.2913 22.8101 44.1421 22.8506C43.993 22.8911 43.8533 22.9607 43.7312 23.0554C43.609 23.1501 43.5068 23.268 43.4304 23.4023L41.0867 27.4617C40.9313 27.7309 40.8892 28.0507 40.9696 28.3509C41.0501 28.6511 41.2464 28.9071 41.5156 29.0625ZM11.0469 62.1094H14.5625C14.8733 62.1094 15.1714 62.2328 15.3911 62.4526C15.6109 62.6724 15.7344 62.9704 15.7344 63.2812C15.7344 63.5921 15.6109 63.8901 15.3911 64.1099C15.1714 64.3297 14.8733 64.4531 14.5625 64.4531H9.875C9.5642 64.4531 9.26613 64.3297 9.04636 64.1099C8.82659 63.8901 8.70312 63.5921 8.70312 63.2812V56.25C8.70312 55.9392 8.82659 55.6411 9.04636 55.4214C9.26613 55.2016 9.5642 55.0781 9.875 55.0781C10.1858 55.0781 10.4839 55.2016 10.7036 55.4214C10.9234 55.6411 11.0469 55.9392 11.0469 56.25V62.1094ZM19.25 57.4219C18.5547 57.4219 17.875 57.6281 17.2968 58.0144C16.7187 58.4007 16.2681 58.9497 16.002 59.5921C15.7359 60.2345 15.6663 60.9414 15.8019 61.6234C15.9376 62.3053 16.2724 62.9318 16.7641 63.4234C17.2557 63.9151 17.8822 64.2499 18.5641 64.3856C19.2461 64.5212 19.953 64.4516 20.5954 64.1855C21.2378 63.9194 21.7868 63.4688 22.1731 62.8907C22.5594 62.3125 22.7656 61.6328 22.7656 60.9375C22.7656 60.0051 22.3952 59.1109 21.7359 58.4516C21.0766 57.7923 20.1824 57.4219 19.25 57.4219ZM19.25 62.1094C19.0182 62.1094 18.7917 62.0406 18.5989 61.9119C18.4062 61.7831 18.256 61.6001 18.1673 61.386C18.0786 61.1718 18.0554 60.9362 18.1006 60.7089C18.1459 60.4816 18.2575 60.2728 18.4214 60.1089C18.5852 59.945 18.7941 59.8334 19.0214 59.7881C19.2487 59.7429 19.4843 59.7661 19.6985 59.8548C19.9126 59.9435 20.0956 60.0937 20.2244 60.2864C20.3531 60.4792 20.4219 60.7057 20.4219 60.9375C20.4219 61.2483 20.2984 61.5464 20.0786 61.7661C19.8589 61.9859 19.5608 62.1094 19.25 62.1094ZM29.3436 57.513C29.4871 57.4527 29.6412 57.4217 29.7969 57.4219C30.1077 57.4219 30.4058 57.5453 30.6256 57.7651C30.8453 57.9849 30.9688 58.283 30.9688 58.5938V63.2812C30.9685 63.5137 30.8991 63.7409 30.7694 63.9338C30.6396 64.1268 30.4554 64.2767 30.2402 64.3647C30.025 64.4526 29.7885 64.4746 29.5608 64.4277C29.333 64.3809 29.1244 64.2673 28.9614 64.1016C28.4254 64.3611 27.8323 64.4803 27.2377 64.4479C26.6431 64.4155 26.0664 64.2326 25.5618 63.9163C25.0573 63.6001 24.6413 63.1608 24.3529 62.6398C24.0646 62.1187 23.9133 61.533 23.9133 60.9375C23.9133 60.342 24.0646 59.7563 24.3529 59.2352C24.6413 58.7142 25.0573 58.2749 25.5618 57.9587C26.0664 57.6424 26.6431 57.4595 27.2377 57.4271C27.8323 57.3947 28.4254 57.5139 28.9614 57.7734C29.0701 57.662 29.2 57.5734 29.3436 57.513ZM26.8021 61.9119C26.9948 62.0406 27.2214 62.1094 27.4532 62.1094C27.764 62.1094 28.062 61.9859 28.2818 61.7661C28.5016 61.5464 28.6251 61.2483 28.6251 60.9375C28.6251 60.7057 28.5563 60.4792 28.4276 60.2864C28.2988 60.0937 28.1158 59.9435 27.9016 59.8548C27.6875 59.7661 27.4519 59.7429 27.2246 59.7881C26.9972 59.8334 26.7884 59.945 26.6245 60.1089C26.4606 60.2728 26.349 60.4816 26.3038 60.7089C26.2586 60.9362 26.2818 61.1718 26.3705 61.386C26.4592 61.6001 26.6094 61.7831 26.8021 61.9119ZM56.7502 57.4219C56.5945 57.4217 56.4403 57.4527 56.2968 57.5131C56.1533 57.5734 56.0233 57.662 55.9146 57.7735C55.3926 57.5192 54.8156 57.3982 54.2354 57.4213C53.6552 57.4444 53.0897 57.6109 52.5895 57.9058C52.0893 58.2008 51.67 58.615 51.3689 59.1116C51.0679 59.6082 50.8945 60.1716 50.8644 60.7515C50.8342 61.3314 50.9481 61.9097 51.196 62.4348C51.4439 62.96 51.818 63.4155 52.2849 63.7608C52.7518 64.1061 53.2969 64.3303 53.8716 64.4135C54.4463 64.4967 55.0327 64.4362 55.5783 64.2375V64.4531C55.5783 64.7639 55.4548 65.062 55.2351 65.2818C55.0153 65.5015 54.7172 65.625 54.4064 65.625H53.2345C52.9237 65.625 52.6257 65.7485 52.4059 65.9682C52.1861 66.188 52.0627 66.4861 52.0627 66.7969C52.0627 67.1077 52.1861 67.4058 52.4059 67.6255C52.6257 67.8453 52.9237 67.9688 53.2345 67.9688H54.4064C55.3388 67.9688 56.233 67.5984 56.8923 66.9391C57.5516 66.2797 57.922 65.3855 57.922 64.4531V58.5938C57.922 58.283 57.7986 57.9849 57.5788 57.7651C57.359 57.5454 57.061 57.4219 56.7502 57.4219ZM54.4064 62.1094C54.1746 62.1094 53.9481 62.0407 53.7554 61.9119C53.5626 61.7831 53.4124 61.6001 53.3237 61.386C53.2351 61.1718 53.2118 60.9362 53.2571 60.7089C53.3023 60.4816 53.4139 60.2728 53.5778 60.1089C53.7417 59.945 53.9505 59.8334 54.1778 59.7882C54.4051 59.7429 54.6407 59.7662 54.8549 59.8548C55.069 59.9435 55.252 60.0937 55.3808 60.2865C55.5096 60.4792 55.5783 60.7057 55.5783 60.9375C55.5783 61.2483 55.4548 61.5464 55.2351 61.7662C55.0153 61.9859 54.7172 62.1094 54.4064 62.1094ZM40.687 57.7651C40.9068 57.5453 41.2048 57.4219 41.5156 57.4219C41.8264 57.4219 42.1245 57.5453 42.3443 57.7651C42.564 57.9849 42.6875 58.2829 42.6875 58.5938V63.2812C42.6875 63.5921 42.564 63.8901 42.3443 64.1099C42.1245 64.3297 41.8264 64.4531 41.5156 64.4531C41.2048 64.4531 40.9068 64.3297 40.687 64.1099C40.4672 63.8901 40.3438 63.5921 40.3438 63.2812V58.5938C40.3438 58.2829 40.4672 57.9849 40.687 57.7651ZM38 55.0781C37.6892 55.0781 37.3911 55.2016 37.1714 55.4214C36.9516 55.6411 36.8281 55.9392 36.8281 56.25V57.6375C36.4528 57.4987 36.0564 57.4258 35.6562 57.4219C34.7238 57.4219 33.8296 57.7923 33.1703 58.4516C32.511 59.1109 32.1406 60.0051 32.1406 60.9375C32.1406 61.8699 32.511 62.7641 33.1703 63.4234C33.8296 64.0827 34.7238 64.4531 35.6562 64.4531C36.179 64.4509 36.6946 64.3308 37.1645 64.1016C37.3275 64.2673 37.5361 64.3809 37.7638 64.4277C37.9916 64.4746 38.2281 64.4526 38.4433 64.3647C38.6585 64.2767 38.8427 64.1268 38.9724 63.9338C39.1022 63.7409 39.1716 63.5137 39.1719 63.2812V56.25C39.1719 55.9392 39.0484 55.6411 38.8286 55.4214C38.6089 55.2016 38.3108 55.0781 38 55.0781ZM35.6562 62.1094C35.4245 62.1094 35.1979 62.0406 35.0052 61.9119C34.8125 61.7831 34.6623 61.6001 34.5736 61.386C34.4849 61.1718 34.4617 60.9362 34.5069 60.7089C34.5521 60.4816 34.6637 60.2727 34.8276 60.1089C34.9915 59.945 35.2003 59.8334 35.4276 59.7881C35.6549 59.7429 35.8906 59.7661 36.1047 59.8548C36.3188 59.9435 36.5019 60.0937 36.6306 60.2864C36.7594 60.4792 36.8281 60.7057 36.8281 60.9375C36.8281 61.2483 36.7047 61.5464 36.4849 61.7661C36.2651 61.9859 35.9671 62.1094 35.6562 62.1094ZM45.6793 57.6434C46.0312 57.4979 46.4082 57.4226 46.7891 57.4219C47.5661 57.4219 48.3112 57.7305 48.8607 58.28C49.4101 58.8294 49.7188 59.5746 49.7188 60.3516V63.2812C49.7188 63.5921 49.5953 63.8901 49.3755 64.1099C49.1557 64.3297 48.8577 64.4531 48.5469 64.4531C48.2361 64.4531 47.938 64.3297 47.7182 64.1099C47.4985 63.8901 47.375 63.5921 47.375 63.2812V60.3516C47.375 60.1962 47.3133 60.0471 47.2034 59.9372C47.0935 59.8274 46.9445 59.7656 46.7891 59.7656C46.6337 59.7656 46.4846 59.8274 46.3747 59.9372C46.2649 60.0471 46.2031 60.1962 46.2031 60.3516V63.2812C46.2031 63.5921 46.0797 63.8901 45.8599 64.1099C45.6401 64.3297 45.3421 64.4531 45.0312 64.4531C44.7204 64.4531 44.4224 64.3297 44.2026 64.1099C43.9828 63.8901 43.8594 63.5921 43.8594 63.2812V58.5938C43.8594 58.2829 43.9828 57.9849 44.2026 57.7651C44.4224 57.5453 44.7204 57.4219 45.0312 57.4219C45.2649 57.4275 45.4911 57.5048 45.6793 57.6434ZM41.5156 56.25C42.1628 56.25 42.6875 55.7253 42.6875 55.0781C42.6875 54.4309 42.1628 53.9062 41.5156 53.9062C40.8684 53.9062 40.3438 54.4309 40.3438 55.0781C40.3438 55.7253 40.8684 56.25 41.5156 56.25ZM64.9531 63.2812C64.9531 63.9285 64.4285 64.4531 63.7812 64.4531C63.134 64.4531 62.6094 63.9285 62.6094 63.2812C62.6094 62.634 63.134 62.1094 63.7812 62.1094C64.4285 62.1094 64.9531 62.634 64.9531 63.2812ZM60.2656 64.4531C60.9128 64.4531 61.4375 63.9285 61.4375 63.2812C61.4375 62.634 60.9128 62.1094 60.2656 62.1094C59.6184 62.1094 59.0938 62.634 59.0938 63.2812C59.0938 63.9285 59.6184 64.4531 60.2656 64.4531ZM68.4688 63.2812C68.4688 63.9285 67.9441 64.4531 67.2969 64.4531C66.6497 64.4531 66.125 63.9285 66.125 63.2812C66.125 62.634 66.6497 62.1094 67.2969 62.1094C67.9441 62.1094 68.4688 62.634 68.4688 63.2812Z" fill="url(#paint0_linear)"/>
<defs>
<linearGradient id="paint0_linear" x1="2.84375" y1="2.34375" x2="73.1563" y2="72.6563" gradientUnits="userSpaceOnUse">
<stop stop-color="#F91DF0"/>
<stop offset="0.677083" stop-color="#56CCF2"/>
</linearGradient>
</defs>
</svg>
