<svg width="76" height="75" viewBox="0 0 76 75" fill="none" xmlns="http://www.w3.org/2000/svg">
<g clip-path="url(#clip0)">
<path fill-rule="evenodd" clip-rule="evenodd" d="M75.5 18.75C75.5 20.8211 73.8211 22.5 71.75 22.5H68V26.25H71.75C73.8211 26.25 75.5 27.9289 75.5 30V45C75.5 47.0711 73.8211 48.75 71.75 48.75H68V52.5H71.75C73.8211 52.5 75.5 54.1789 75.5 56.25V71.25C75.5 73.3211 73.8211 75 71.75 75H4.25C2.17891 75 0.5 73.3211 0.5 71.25V56.25C0.5 54.1789 2.17891 52.5 4.25 52.5H8V48.75H4.25C2.17891 48.75 0.5 47.0711 0.5 45V30C0.5 27.9289 2.17891 26.25 4.25 26.25H8V22.5H4.25C2.17891 22.5 0.5 20.8211 0.5 18.75V3.75C0.5 1.67891 2.17891 0 4.25 0H71.75C73.8211 0 75.5 1.67891 75.5 3.75V18.75ZM73 56.25C73 55.5597 72.4403 55 71.75 55H57.4074L55.9641 52.5H60.5V48.75H53.799L52.3556 46.25H71.75C72.4403 46.25 73 45.6903 73 45V30C73 29.3097 72.4403 28.75 71.75 28.75H42.252L40.8086 26.25H60.5V22.5H15.5V26.25H35.035L35.892 24.7656C36.7941 23.2031 39.0494 23.2031 39.9515 24.7656L46.582 36.25H48.0001V38.7062L50.5001 43.0363V41.25H53.0001V43.75H50.9121L58.5575 56.9922C59.4596 58.5547 58.332 60.5078 56.5278 60.5078H19.3158C17.5115 60.5078 16.3839 58.5547 17.286 56.9922L18.4362 55H4.25C3.55969 55 3 55.5597 3 56.25V71.25C3 71.9403 3.55969 72.5 4.25 72.5H71.75C72.4403 72.5 73 71.9403 73 71.25V56.25ZM19.8796 52.5L22.0446 48.75H15.5V52.5H19.8796ZM23.488 46.25L27.8181 38.75H15.27C14.8925 39.8178 14.0525 40.658 12.9846 41.0355C11.0321 41.7259 8.8894 40.7027 8.19909 38.75C7.50878 36.7973 8.53222 34.655 10.4847 33.9645C12.4372 33.2741 14.5799 34.2973 15.2702 36.25H29.2615L33.5916 28.75H4.25C3.55969 28.75 3 29.3097 3 30V45C3 45.6903 3.55969 46.25 4.25 46.25H23.488ZM10.5 48.75V52.5H13V48.75H10.5ZM63 48.75V52.5H65.5V48.75H63ZM10.5 22.5V26.25H13V22.5H10.5ZM63 22.5V26.25H65.5V22.5H63ZM3 18.75C3 19.4403 3.55969 20 4.25 20H71.75C72.4403 20 73 19.4403 73 18.75V3.75C73 3.05969 72.4403 2.5 71.75 2.5H4.25C3.55969 2.5 3 3.05969 3 3.75V18.75ZM55.5002 5H58.0002V7.5H55.5002V5ZM15.2702 10H40.5002C41.1905 10 41.7502 10.5597 41.7502 11.25C41.7502 11.9403 41.1905 12.5 40.5002 12.5H15.2702C14.8927 13.568 14.0525 14.408 12.9846 14.7855C11.0321 15.4759 8.8894 14.4527 8.19909 12.5C7.50878 10.5473 8.53222 8.405 10.4847 7.71453C12.4372 7.02406 14.5799 8.04735 15.2702 10ZM10.5002 11.25C10.5002 11.9403 11.0599 12.5 11.7502 12.5C12.4405 12.5 13.0002 11.9403 13.0002 11.25C13.0002 10.5597 12.4405 10 11.7502 10C11.0599 10 10.5002 10.5597 10.5002 11.25ZM63.0002 5H60.5002V7.5H63.0002V5ZM65.5002 5H68.0002V7.5H65.5002V5ZM53.0001 5H50.5001V7.5H53.0001V5ZM45.5001 5H48.0001V7.5H45.5001V5ZM58.0002 10H55.5002V12.5H58.0002V10ZM60.5002 10H63.0002V12.5H60.5002V10ZM68.0002 10H65.5002V12.5H68.0002V10ZM50.5001 10H53.0001V12.5H50.5001V10ZM48.0001 10H45.5001V12.5H48.0001V10ZM55.5002 15H58.0002V17.5H55.5002V15ZM63.0002 15H60.5002V17.5H63.0002V15ZM65.5002 15H68.0002V17.5H65.5002V15ZM53.0001 15H50.5001V17.5H53.0001V15ZM45.5001 15H48.0001V17.5H45.5001V15ZM11.7502 38.75C11.0599 38.75 10.5002 38.1903 10.5002 37.5C10.5002 36.8097 11.0599 36.25 11.7502 36.25C12.4405 36.25 13.0002 36.8097 13.0002 37.5C13.0002 38.1903 12.4405 38.75 11.7502 38.75ZM55.5002 31.25H58.0002V33.75H55.5002V31.25ZM63.0002 31.25H60.5002V33.75H63.0002V31.25ZM65.5002 31.25H68.0002V33.75H65.5002V31.25ZM53.0001 31.25H50.5001V33.75H53.0001V31.25ZM45.5001 31.25H48.0001V33.75H45.5001V31.25ZM58.0002 36.25H55.5002V38.75H58.0002V36.25ZM60.5002 36.25H63.0002V38.75H60.5002V36.25ZM68.0002 36.25H65.5002V38.75H68.0002V36.25ZM50.5001 36.25H53.0001V38.75H50.5001V36.25ZM55.5002 41.25H58.0002V43.75H55.5002V41.25ZM63.0002 41.25H60.5002V43.75H63.0002V41.25ZM65.5002 41.25H68.0002V43.75H65.5002V41.25ZM15.2702 62.5H40.5002C41.1905 62.5 41.7502 63.0597 41.7502 63.75C41.7502 64.4403 41.1905 65 40.5002 65H15.27C14.8925 66.0678 14.0525 66.908 12.9846 67.2855C11.0321 67.976 8.8894 66.9527 8.19909 65C7.50878 63.0474 8.53222 60.905 10.4847 60.2145C12.4372 59.5241 14.5799 60.5473 15.2702 62.5ZM10.5002 63.75C10.5002 64.4403 11.0599 65 11.7502 65C12.4405 65 13.0002 64.4403 13.0002 63.75C13.0002 63.0597 12.4405 62.5 11.7502 62.5C11.0599 62.5 10.5002 63.0597 10.5002 63.75ZM63.0002 57.5H60.5002V60H63.0002V57.5ZM65.5002 57.5H68.0002V60H65.5002V57.5ZM58.0002 62.5H55.5002V65H58.0002V62.5ZM60.5002 62.5H63.0002V65H60.5002V62.5ZM68.0002 62.5H65.5002V65H68.0002V62.5ZM50.5001 62.5H53.0001V65H50.5001V62.5ZM48.0001 62.5H45.5001V65H48.0001V62.5ZM55.5002 67.5H58.0002V70H55.5002V67.5ZM63.0002 67.5H60.5002V70H63.0002V67.5ZM65.5002 67.5H68.0002V70H65.5002V67.5ZM53.0001 67.5H50.5001V70H53.0001V67.5ZM45.5001 67.5H48.0001V70H45.5001V67.5ZM19.857 57.8516L37.9218 26.5625L55.9865 57.8516H19.857ZM35.5 45.4688V36.25H40.1875V45.4688H35.5ZM35.5 47.8125V53.125H40.1875V47.8125H35.5Z" fill="url(#paint0_linear)"/>
</g>
<defs>
<linearGradient id="paint0_linear" x1="0.5" y1="0" x2="75.5" y2="75" gradientUnits="userSpaceOnUse">
<stop stop-color="#F91DF0"/>
<stop offset="0.677083" stop-color="#56CCF2"/>
</linearGradient>
<clipPath id="clip0">
<rect width="75" height="75" fill="white" transform="translate(0.5)"/>
</clipPath>
</defs>
</svg>
