<svg width="76" height="75" viewBox="0 0 76 75" fill="none" xmlns="http://www.w3.org/2000/svg">
<g clip-path="url(#clip0)">
<path fill-rule="evenodd" clip-rule="evenodd" d="M23.3883 75H20.5684L20.5374 74.9998H15.0928C14.4842 74.9998 13.991 74.5065 13.991 73.898V62.1732C13.991 57.1469 15.7453 52.2439 18.9309 48.3674C21.5348 45.1985 24.9918 42.8292 28.8414 41.5365C26.3414 39.6 24.4675 36.8921 23.5817 33.7723C23.0833 33.9205 22.5637 33.9977 22.0368 33.9977C19.0451 33.9977 16.6113 31.5639 16.6113 28.5722C16.6113 26.9653 17.3141 25.5201 18.4278 24.5257C17.7033 23.3467 16.4973 21.1049 15.6449 18.1049C8.94487 16.2911 7.3728 14.0093 7.3728 12.2695C7.3728 9.51752 11.0652 7.33827 18.3471 5.79242C18.9418 5.66615 19.5272 6.04628 19.6538 6.64144C19.78 7.23661 19.3999 7.82167 18.8047 7.94808C15.8039 8.58514 13.3521 9.37455 11.7145 10.2315C10.3756 10.9318 9.57637 11.6938 9.57637 12.2695C9.57637 12.9702 10.8571 14.3423 15.0726 15.6433C14.8001 14.1473 14.638 12.5193 14.6636 10.7809C14.6685 10.4467 14.8249 10.1328 15.0887 9.92767C15.3525 9.72201 15.696 9.64803 16.0204 9.72538L16.0206 9.72542C16.0516 9.7325 18.2119 10.2257 20.0376 9.73343C21.4226 9.36004 23.017 7.83954 24.5591 6.36883C24.9996 5.94916 25.6968 5.96542 26.1168 6.40589C26.5366 6.84623 26.5202 7.54364 26.0797 7.96361L26.0781 7.96514L26.0781 7.96515L26.0781 7.96516C24.3371 9.62537 22.5369 11.342 20.6112 11.8611C19.2829 12.2194 17.8826 12.1885 16.8848 12.0866C16.9491 13.5958 17.1631 15.0051 17.4591 16.2911C18.5644 16.5555 19.8112 16.8113 21.2167 17.0514C21.8166 17.1537 22.2199 17.723 22.1173 18.3228C22.0256 18.8598 21.5597 19.2392 21.0326 19.2392C20.9711 19.2392 20.9087 19.234 20.8458 19.2233C19.8818 19.0586 18.9851 18.8861 18.1486 18.7072C18.8988 20.9049 19.8001 22.5445 20.3389 23.4206C20.8734 23.244 21.4439 23.147 22.0369 23.147C22.3658 23.147 22.6933 23.1782 23.0151 23.2372V22.8474C23.0151 21.2713 24.1365 19.9082 25.6814 19.6063C28.6538 19.0258 36.1831 17.002 41.8926 10.7663C42.2774 10.3457 42.8213 10.1276 43.3907 10.1716C43.9543 10.214 44.4584 10.5079 44.7736 10.9775C45.8811 12.6283 48.7283 16.7182 51.2431 19.0381C52.3504 20.0597 52.9857 21.5244 52.9857 23.0566V23.2367C53.3075 23.1776 53.6351 23.1464 53.9641 23.1464C54.9336 23.1464 55.8439 23.4034 56.6326 23.8509C57.336 21.9687 57.7674 20.2413 58.0006 18.6735C57.2261 18.8417 56.3991 19.0043 55.5137 19.1603C55.4491 19.1719 55.3847 19.1773 55.3212 19.1773C54.7967 19.1773 54.3316 18.8011 54.2375 18.2666C54.1319 17.6673 54.5321 17.0959 55.1314 16.9903C56.2615 16.7912 57.2859 16.582 58.2142 16.3665C58.3517 12.3769 57.2001 9.69696 56.4804 8.43016C55.1519 6.09183 53.1843 4.58788 51.0818 4.30384C47.558 3.82806 45.1508 5.19711 45.1268 5.21088C44.8442 5.37508 44.5108 5.43133 44.2034 5.31942C43.9006 5.20897 43.6686 4.99715 43.5558 4.69657C43.4567 4.51083 42.0038 2.01356 35.9346 2.21512C33.7428 2.28807 31.6271 3.19803 29.2768 5.07889C28.8017 5.45902 28.1083 5.38212 27.7281 4.90692C27.3479 4.43202 27.4249 3.73841 27.9001 3.35829C30.6404 1.16556 33.1702 0.102525 35.8612 0.0127306C39.1022 -0.0949355 41.6915 0.46317 43.5561 1.6724C44.1839 2.07948 44.6327 2.50355 44.9462 2.86815C46.1544 2.38153 48.445 1.72396 51.377 2.12005C54.1668 2.49711 56.7253 4.40038 58.3964 7.34178C59.7752 9.76888 60.4495 12.6558 60.4251 15.792C65.0481 14.4442 66.4236 12.9905 66.4236 12.2694C66.4236 11.5739 65.1852 10.3403 61.6949 9.15292C61.1189 8.95677 60.8107 8.33099 61.0067 7.75487C61.203 7.17889 61.8291 6.87098 62.4048 7.06669C66.5337 8.47162 68.6273 10.222 68.6273 12.2694C68.6273 14.0077 67.0519 16.3012 60.2825 18.1226C60.0174 20.4803 59.3849 22.9424 58.3828 25.4298C59.0157 26.3174 59.3897 27.4016 59.3897 28.5723C59.3897 31.564 56.9559 33.9978 53.9642 33.9978C53.4373 33.9978 52.9177 33.9206 52.4191 33.7724C51.5334 36.8922 49.6596 39.6 47.1597 41.5365C50.2236 42.5615 53.0311 44.2614 55.3812 46.5354C55.8184 46.9586 55.8298 47.6562 55.4066 48.0934C55.1904 48.3168 54.9029 48.429 54.6147 48.429C54.3389 48.429 54.0625 48.3261 53.8486 48.1191C51.5213 45.867 48.6965 44.2387 45.6139 43.3616C45.1601 47.1609 41.92 50.117 38.0005 50.117C34.0814 50.117 30.8418 47.1619 30.3873 43.3633C26.5895 44.4477 23.164 46.6872 20.6334 49.7667C17.771 53.2501 16.1947 57.6562 16.1947 62.1735V66.0992H20.7709L19.9866 53.4564C19.9491 52.8512 20.1633 52.2573 20.5786 51.8155C20.9939 51.3736 21.5733 51.123 22.1797 51.123H53.9668C54.5731 51.123 55.1526 51.3736 55.5679 51.8155C55.9831 52.2573 56.1974 52.8512 56.1598 53.4564L55.3755 66.099H59.8063V62.1734C59.8063 58.0904 58.561 54.1794 56.2057 50.863C55.8534 50.3669 55.9699 49.6791 56.466 49.3268C56.9621 48.9741 57.65 49.091 58.002 49.587C60.6238 53.2783 62.0097 57.6306 62.0097 62.1734V73.8981C62.0097 74.5068 61.5165 75 60.9078 75H55.5781H52.7949H52.7581H36.1401H23.5713H23.3883ZM59.8061 72.7964H58.4171C58.4763 72.5642 58.5078 72.3209 58.5078 72.0703V69.4336H55.1686L55.2388 68.3027H59.8063V72.7964H59.8061ZM23.3978 72.8027H52.7581L53.9668 53.3203H22.1797L23.3534 72.2395L23.3978 72.8027ZM20.9778 69.4336H17.6387V72.0703C17.6387 72.3209 17.6701 72.5642 17.7294 72.7964H16.1947V68.3027H20.9076L20.9778 69.4336ZM21.1615 72.3941L21.1868 72.8027H20.5684C20.1639 72.8027 19.8359 72.4748 19.8359 72.0703V71.6309H21.1012L21.1615 72.3941ZM38.0005 47.9134C35.415 47.9134 33.2446 46.1086 32.6792 43.6931C34.3337 44.3237 36.1272 44.6702 38.0005 44.6702C39.8737 44.6702 41.6671 44.3237 43.3217 43.6932C42.7563 46.1086 40.5859 47.9134 38.0005 47.9134ZM53.9642 25.3506C55.7408 25.3506 57.1861 26.7959 57.1861 28.5725C57.1861 30.3491 55.7408 31.7944 53.9642 31.7944C53.5863 31.7944 53.2145 31.7279 52.8638 31.6003C52.9442 30.9729 52.9858 30.3337 52.9858 29.6848V25.5029C53.3006 25.4029 53.6313 25.3506 53.9642 25.3506ZM22.0369 31.7944C20.2604 31.7944 18.815 30.3491 18.815 28.5725C18.815 26.7959 20.2604 25.3506 22.0369 25.3506C22.3699 25.3506 22.7003 25.4029 23.0151 25.5029V29.6848C23.0151 30.3337 23.0567 30.9729 23.1372 31.6003C22.7866 31.7279 22.4148 31.7944 22.0369 31.7944ZM25.2188 29.6848V22.8474C25.2188 22.3227 25.5912 21.8694 26.1042 21.769C29.2366 21.1572 37.0942 19.0463 43.2043 12.5911C44.4988 14.4943 47.2454 18.3483 49.749 20.6579C50.4057 21.2637 50.7821 22.138 50.7821 23.0568V29.6848C50.7821 36.7327 45.0483 42.4665 38.0005 42.4665C30.9525 42.4665 25.2188 36.7327 25.2188 29.6848ZM32.4673 34.985C31.9925 34.6043 31.9194 33.9073 32.3003 33.4326C32.4137 33.2913 33.4515 32.0516 34.9433 32.0518C35.818 32.0518 36.3821 32.5862 36.7939 32.9764C37.2321 33.3915 37.4848 33.6082 38.0006 33.6082C38.5162 33.6082 38.7691 33.3915 39.2072 32.9764C39.6191 32.5862 40.1832 32.0518 41.0579 32.0518C42.5495 32.0518 43.5874 33.2915 43.7008 33.4328C44.0816 33.9073 44.0054 34.6009 43.5308 34.9816C43.0583 35.3609 42.3685 35.287 41.9869 34.8179C41.8384 34.6396 41.4327 34.2791 41.0911 34.2564C41.0078 34.3061 40.8407 34.4642 40.7257 34.5731L40.7227 34.5759L40.7226 34.576C40.2032 35.068 39.4182 35.8116 38.0006 35.8116C36.5826 35.8116 35.7976 35.0679 35.2783 34.5759C35.1633 34.4669 34.994 34.3065 34.9101 34.2564C34.5677 34.2791 34.1614 34.6408 34.0133 34.8187C33.6324 35.2933 32.9418 35.3657 32.4673 34.985ZM29.1423 28.4593C29.3574 28.6743 29.6396 28.782 29.9214 28.782C30.2032 28.782 30.4854 28.6743 30.7006 28.4593L31.2827 27.8771L31.8648 28.4593C32.08 28.6743 32.3621 28.782 32.644 28.782C32.9258 28.782 33.2079 28.6743 33.4231 28.4593C33.8533 28.0289 33.8533 27.3313 33.4231 26.901L32.841 26.3188L33.4231 25.7367C33.8533 25.3063 33.8533 24.6088 33.4231 24.1784C32.9927 23.7483 32.2952 23.7483 31.8648 24.1784L31.2827 24.7605L30.7006 24.1784C30.2702 23.7483 29.5726 23.7483 29.1423 24.1784C28.712 24.6088 28.712 25.3063 29.1423 25.7367L29.7244 26.3188L29.1423 26.901C28.7119 27.3313 28.7119 28.0289 29.1423 28.4593ZM43.3572 28.782C43.0754 28.782 42.7932 28.6743 42.5782 28.4593C42.1477 28.029 42.1477 27.3313 42.5781 26.9011L43.1603 26.3188L42.5781 25.7365C42.1478 25.3063 42.1478 24.6086 42.5782 24.1784C43.0084 23.7482 43.7061 23.7483 44.1364 24.1785L44.7183 24.7607L45.3003 24.1785C45.7307 23.7482 46.4284 23.7483 46.8585 24.1784C47.2889 24.6086 47.2889 25.3063 46.8586 25.7365L46.2764 26.3188L46.8586 26.9011C47.2889 27.3313 47.2889 28.029 46.8585 28.4593C46.6434 28.6743 46.3613 28.782 46.0795 28.782C45.7973 28.782 45.5155 28.6743 45.3003 28.4591L44.7183 27.877L44.1364 28.4591C43.9212 28.6743 43.639 28.782 43.3572 28.782ZM8.47461 21.0026C6.402 21.0026 4.71582 22.6888 4.71582 24.7613C4.71582 26.8339 6.402 28.5201 8.47461 28.5201C10.5472 28.5201 12.2334 26.8339 12.2334 24.7613C12.2334 22.6887 10.5472 21.0026 8.47461 21.0026ZM8.47461 26.3164C7.61709 26.3164 6.91938 25.6187 6.91938 24.7613C6.91938 23.9038 7.61709 23.2062 8.47461 23.2062C9.33213 23.2062 10.0298 23.9038 10.0298 24.7613C10.0298 25.6187 9.33213 26.3164 8.47461 26.3164ZM63.7666 21.5918C63.7666 19.5193 65.4528 17.8331 67.5254 17.8331C69.598 17.8331 71.2842 19.5193 71.2842 21.5918C71.2842 23.6644 69.598 25.3506 67.5254 25.3506C65.4528 25.3506 63.7666 23.6644 63.7666 21.5918ZM65.9703 21.5918C65.9703 22.4493 66.6679 23.147 67.5254 23.147C68.3829 23.147 69.0806 22.4493 69.0806 21.5918C69.0806 20.7344 68.3829 20.0369 67.5254 20.0369C66.668 20.0369 65.9703 20.7343 65.9703 21.5918ZM55.168 71.6309H56.3105V72.0703C56.3105 72.4748 55.9826 72.8027 55.5781 72.8027H55.1078L55.168 71.6309ZM38 59.1797C38.6819 59.1797 39.3235 59.3523 39.8835 59.6561C39.692 59.9801 39.582 60.3581 39.582 60.7617C39.582 61.9631 40.5559 62.937 41.7573 62.937C41.8222 62.937 41.8864 62.9342 41.9498 62.9286C41.9533 62.9969 41.9551 63.0656 41.9551 63.1348C41.9551 65.3191 40.1843 67.0898 38 67.0898C35.8157 67.0898 34.0449 65.3191 34.0449 63.1348C34.0449 60.9504 35.8157 59.1797 38 59.1797ZM38 64.8926C38.9708 64.8926 39.7578 64.1056 39.7578 63.1348C39.7578 62.164 38.9708 61.377 38 61.377C37.0292 61.377 36.2422 62.164 36.2422 63.1348C36.2422 64.1056 37.0292 64.8926 38 64.8926Z" fill="url(#paint0_linear)"/>
</g>
<defs>
<linearGradient id="paint0_linear" x1="4.71582" y1="-0.000335693" x2="79.1859" y2="66.0974" gradientUnits="userSpaceOnUse">
<stop stop-color="#F91DF0"/>
<stop offset="0.677083" stop-color="#56CCF2"/>
</linearGradient>
<clipPath id="clip0">
<rect width="75" height="75" fill="white" transform="translate(0.5)"/>
</clipPath>
</defs>
</svg>
