<svg width="76" height="75" viewBox="0 0 76 75" fill="none" xmlns="http://www.w3.org/2000/svg">
<path fill-rule="evenodd" clip-rule="evenodd" d="M61.111 40.2916C61.8636 39.3833 62.3167 38.2182 62.3167 36.9492C62.3167 35.5381 61.7553 34.2562 60.8455 33.3125L60.1534 15.1717C60.0249 11.8285 58.411 8.7242 55.788 6.6929L56.5503 5.00979C56.6729 4.73865 56.6805 4.42912 56.571 4.15227C56.4615 3.87556 56.2443 3.6548 55.9691 3.54113C44.5494 -1.18021 31.4503 -1.18021 20.0307 3.54113C19.7556 3.6548 19.5383 3.87541 19.4287 4.15227C19.3192 4.42912 19.3266 4.73865 19.4494 5.00979L20.2119 6.6929C19.0542 7.58997 18.072 8.71146 17.3418 9.9784C17.0388 10.5043 17.2193 11.1762 17.7452 11.4791C17.918 11.5787 18.1066 11.6261 18.2929 11.6261C18.673 11.6261 19.0426 11.4286 19.2459 11.0757C19.7462 10.2078 20.3957 9.42733 21.1518 8.76785L21.1562 8.77743L21.162 8.79021C22.495 11.7341 23.828 14.6781 25.1623 17.622C25.4069 18.1618 26.0355 18.4101 26.5829 18.1839C33.116 15.4831 40.5136 15.2157 47.2188 17.3782C47.1857 17.4027 47.153 17.4279 47.1226 17.4563C41.7246 22.4908 34.3482 25.2893 24.637 25.972C23.6324 26.0426 22.6028 26.0907 21.5479 26.1162H21.5469C20.9737 26.1305 20.3805 26.1379 19.7841 26.1379C19.1772 26.1379 18.6853 26.6299 18.6853 27.2366C18.6853 27.8435 19.1774 28.3354 19.7841 28.3354C20.0157 28.3354 20.246 28.3334 20.4757 28.3312V31.7037H18.93C18.4003 31.7037 17.889 31.7832 17.4065 31.9299L18.0426 15.2608C18.0477 15.1402 18.054 15.0197 18.0644 14.899C18.1164 14.2944 17.6684 13.762 17.0639 13.71C16.4583 13.6577 15.9269 14.106 15.8749 14.7104C15.8601 14.8815 15.8522 15.0438 15.8468 15.1716L15.1546 33.3121C14.2448 34.2557 13.6835 35.5376 13.6835 36.9487C13.6835 38.2179 14.1365 39.3829 14.8892 40.2912L14.7685 43.4425C14.6847 45.6293 15.4742 47.7022 16.992 49.2791C18.5097 50.8561 20.551 51.7245 22.7394 51.7245H27.359C27.9659 51.7245 28.4578 51.2324 28.4578 50.6257C28.4578 50.019 27.9657 49.5269 27.359 49.5269H22.7394C21.1539 49.5269 19.6751 48.8976 18.5755 47.7552C17.4761 46.6128 16.9039 45.111 16.9646 43.5268L17.0292 41.8375C17.5467 42.0394 18.1032 42.1623 18.6848 42.1891V43.4017C18.6848 44.0085 19.1768 44.5004 19.7835 44.5004C20.3904 44.5004 20.8823 44.0084 20.8823 43.4017V42.1955H22.6259C24.4489 45.5219 27.2897 48.1633 30.733 49.7319V52.1349H30.245C30.1822 52.1349 30.1177 52.1352 30.0479 52.1364L30.0231 52.1365L30.0165 52.1368L30.0063 52.137C30.0034 52.1371 30.0006 52.1372 29.9977 52.1373C29.9916 52.1376 29.9854 52.1379 29.9793 52.1382C29.9703 52.1387 29.9614 52.1392 29.9524 52.1395C26.7829 52.2148 23.8148 53.4993 21.5882 55.7639C19.342 58.0487 18.105 61.0717 18.105 64.2763V73.9008C18.105 74.5077 18.597 74.9996 19.2037 74.9996H56.7961C57.403 74.9996 57.8949 74.5075 57.8949 73.9008V64.2763C57.8949 61.0717 56.6578 58.0487 54.4116 55.7639C52.2464 53.5617 49.3797 52.2884 46.3131 52.1505C46.2053 52.145 46.0958 52.1402 45.9816 52.1364C45.906 52.1346 45.8306 52.1346 45.755 52.1346H45.267V51.7243H53.2608C55.4495 51.7243 57.4906 50.8558 59.0085 49.2789C60.526 47.702 61.3156 45.6291 61.232 43.4424L61.111 40.2916ZM20.8823 39.9975V39.0276C20.8823 38.4207 20.3903 37.9288 19.7835 37.9288C19.1766 37.9288 18.6848 38.4209 18.6848 39.0276V39.9858C17.1181 39.8602 15.8809 38.5476 15.8809 36.9493C15.8809 35.269 17.2486 33.9018 18.9298 33.9018H20.476C20.4779 34.1891 20.4871 34.475 20.5025 34.7597C20.5041 34.79 20.5061 34.8203 20.508 34.8505L20.5108 34.8952C20.5177 35.0069 20.5256 35.1184 20.5346 35.2297C20.5385 35.2785 20.5425 35.3271 20.5467 35.3758C20.5577 35.4985 20.57 35.6211 20.5835 35.7434L20.5877 35.7839C20.5894 35.8011 20.5912 35.8182 20.5932 35.8353C20.6107 35.9869 20.6304 36.1382 20.6517 36.2891C20.6528 36.2967 20.6539 36.3044 20.6551 36.312C20.6573 36.3269 20.6596 36.3417 20.6619 36.3566L20.6619 36.3567L20.6687 36.4012C20.6859 36.5159 20.7039 36.6304 20.7232 36.7445C20.7314 36.7932 20.7399 36.8416 20.7486 36.8901C20.7683 37.0009 20.7893 37.1112 20.8111 37.2213L20.8181 37.257L20.8181 37.257C20.8237 37.2862 20.8294 37.3154 20.8354 37.3444C20.8661 37.4931 20.8983 37.6411 20.9329 37.789L20.9405 37.8205L20.9482 37.8521C20.9784 37.9789 21.01 38.1055 21.0432 38.2316C21.0529 38.2691 21.063 38.3064 21.0732 38.3437L21.0802 38.3698C21.1088 38.4749 21.1382 38.58 21.1687 38.6846L21.1762 38.7105C21.1869 38.7473 21.1975 38.784 21.2085 38.8206C21.2476 38.951 21.2882 39.0808 21.3304 39.2104L21.3377 39.2333L21.3449 39.2561C21.3924 39.4001 21.4422 39.5434 21.4934 39.6864C21.504 39.7159 21.515 39.7453 21.5259 39.7748L21.5394 39.8112L21.5621 39.8733C21.5772 39.9147 21.5923 39.9562 21.608 39.9975H20.8823ZM57.9571 15.2558L58.5935 31.9302C58.111 31.7835 57.5999 31.704 57.07 31.704H55.5243V29.4672C55.7543 29.4931 55.985 29.5077 56.2159 29.5077C56.8228 29.5077 57.3147 29.0157 57.3147 28.409C57.3147 27.8022 56.8226 27.3102 56.2159 27.3102C55.7429 27.3102 55.2674 27.2242 54.7992 27.0534C53.0774 26.4305 51.5871 24.7722 50.5302 22.8084C49.789 21.431 49.2614 19.9038 49.0178 18.4773C48.9967 18.3541 48.9773 18.2315 48.9605 18.1099C48.9549 18.0698 48.9456 18.031 48.9359 17.9923L49.0081 18.0207L49.0082 18.0207L49.0082 18.0207L49.0083 18.0207C49.1447 18.0743 49.2813 18.1279 49.4169 18.184C49.5541 18.2407 49.6963 18.2675 49.8363 18.2675C50.2553 18.2675 50.6543 18.0266 50.8375 17.6221C52.1757 14.6697 53.5126 11.7175 54.8493 8.76507C56.7202 10.3963 57.8606 12.7423 57.9571 15.2558ZM26.7326 15.7635C25.3501 12.7125 23.9683 9.66126 22.587 6.61043L21.9262 5.15159C32.2051 1.21129 43.7943 1.21129 54.0732 5.15159L53.3134 6.82898C51.9649 9.80716 50.6162 12.7853 49.2668 15.7634C42.0492 13.0631 33.9505 13.0631 26.7326 15.7635ZM46.4556 61.7291C47.4293 59.4633 47.872 56.9109 47.7284 54.5303C49.6602 54.9178 51.4342 55.8707 52.8445 57.3053C54.6842 59.1763 55.6973 61.6522 55.6973 64.2768V72.8023H20.3025V64.2768C20.3025 61.6522 21.3156 59.1762 23.1553 57.3053C24.5652 55.8713 26.3383 54.9187 28.2714 54.5305C28.128 56.9109 28.5706 59.4633 29.5442 61.7291C31.0735 65.2879 33.8462 68.0216 37.5625 69.6347C37.7021 69.6954 37.851 69.7255 38.0001 69.7255C38.149 69.7255 38.298 69.6954 38.4376 69.6347C42.1536 68.0216 44.9263 65.2879 46.4556 61.7291ZM45.5078 54.3335C45.8033 57.9776 44.5725 64.3216 37.9998 67.4208C31.427 64.3216 30.1962 57.9775 30.4917 54.3329H30.9671L30.9689 54.3394C30.9698 54.3427 30.9708 54.3459 30.9716 54.3492C30.9811 54.3855 30.9921 54.4213 31.0021 54.4573L31.0049 54.4673C31.0227 54.5309 31.0404 54.5943 31.0599 54.6571C31.0685 54.6846 31.0776 54.7119 31.0867 54.7392L31.1003 54.7802C31.1201 54.8402 31.14 54.9001 31.1614 54.9594C31.1744 54.9954 31.188 55.0309 31.2016 55.0664L31.2016 55.0666L31.2017 55.0667L31.2092 55.0863C31.212 55.0937 31.2148 55.1011 31.2176 55.1086C31.2203 55.1159 31.223 55.1233 31.2257 55.1306L31.2258 55.1308C31.2338 55.1525 31.2417 55.1743 31.2504 55.1957C31.2584 55.2158 31.2675 55.2354 31.2757 55.2555C31.2931 55.2981 31.3113 55.3403 31.3296 55.3825C31.3533 55.4371 31.3775 55.4916 31.4024 55.5455C31.4217 55.5874 31.4415 55.6292 31.4617 55.6706C31.4875 55.7238 31.5142 55.7765 31.5413 55.829C31.5624 55.8697 31.5835 55.9104 31.6053 55.9507C31.6337 56.0033 31.6631 56.0552 31.6929 56.1069L31.7104 56.1373C31.7267 56.1659 31.7431 56.1945 31.76 56.2227C31.7916 56.2758 31.8246 56.3278 31.8577 56.3799C31.8804 56.4156 31.9025 56.4518 31.9258 56.4871C31.963 56.5435 32.0015 56.5988 32.0402 56.654L32.0634 56.6877L32.0635 56.6878L32.0635 56.6878C32.0762 56.7063 32.0889 56.7249 32.102 56.743C32.1615 56.8254 32.2226 56.9065 32.2853 56.9864C32.2932 56.9965 32.3015 57.0061 32.3096 57.0162C32.3667 57.088 32.4249 57.1588 32.4846 57.2282C32.5 57.2461 32.5158 57.2636 32.5316 57.2811L32.5588 57.3113C32.6026 57.3608 32.6465 57.4101 32.6916 57.4585C32.7109 57.4791 32.7307 57.4993 32.7504 57.5195L32.7799 57.5499C32.8223 57.5935 32.8648 57.6372 32.9083 57.6798C32.9372 57.7082 32.9667 57.736 32.9962 57.7638L33.0049 57.772C33.0476 57.8122 33.0905 57.8524 33.134 57.8916C33.1678 57.9221 33.202 57.952 33.2364 57.9817C33.2803 58.0198 33.3246 58.0575 33.3694 58.0944C33.4046 58.1234 33.4399 58.1521 33.4755 58.1804C33.521 58.2165 33.567 58.2521 33.6134 58.2873C33.6496 58.3147 33.6857 58.3419 33.7223 58.3686C33.7702 58.4035 33.8187 58.4373 33.8674 58.471L33.8955 58.4904L33.8955 58.4904C33.9225 58.5091 33.9494 58.5277 33.9767 58.546C34.0281 58.5801 34.0801 58.6129 34.1324 58.6459L34.1615 58.6643C34.1871 58.6806 34.2126 58.6968 34.2385 58.7124C34.2949 58.7465 34.3522 58.7791 34.4097 58.8118L34.4149 58.8148L34.4502 58.8352L34.4507 58.8354L34.4809 58.8529L34.5074 58.8678C34.5977 58.9173 34.6889 58.9651 34.7814 59.0108L34.7919 59.0158L34.7982 59.0187C34.8861 59.0619 34.9752 59.1034 35.065 59.1431C35.0746 59.1473 35.0844 59.1515 35.0942 59.1556L35.1245 59.1681L35.1638 59.1845C35.227 59.2113 35.2901 59.238 35.354 59.263C35.3812 59.2737 35.4088 59.2838 35.4363 59.2938L35.4367 59.2939L35.4715 59.3067C35.5305 59.3286 35.5895 59.3503 35.6493 59.3708C35.6863 59.3835 35.7235 59.3954 35.7608 59.4073L35.7756 59.412C35.8336 59.4306 35.8917 59.4489 35.9503 59.4662C35.9745 59.4733 35.9987 59.4802 36.0231 59.4869L36.082 59.5031C36.1402 59.5191 36.1986 59.5343 36.2573 59.5488C36.302 59.5598 36.3468 59.5703 36.3918 59.5806C36.451 59.5939 36.5106 59.6065 36.5702 59.6184C36.6152 59.6273 36.6603 59.6363 36.7056 59.6445C36.7667 59.6555 36.828 59.6653 36.8896 59.6746L36.9279 59.6806L36.9654 59.6863C36.9847 59.6892 37.0039 59.692 37.0233 59.6946C37.087 59.7031 37.1513 59.7101 37.2154 59.7171L37.2173 59.7173L37.2593 59.7219L37.3092 59.7274L37.3448 59.7309C37.4171 59.7373 37.4897 59.7417 37.5625 59.7461L37.6027 59.7488C37.625 59.7504 37.6473 59.752 37.6697 59.753C37.7787 59.7578 37.8882 59.7606 37.9983 59.7606C39.9395 59.7606 41.7644 59.0048 43.1364 57.6328C43.2384 57.531 43.3358 57.4254 43.4311 57.318C43.4518 57.2947 43.4726 57.2716 43.493 57.248C43.5847 57.1421 43.6736 57.0338 43.7587 56.9229C43.7686 56.9099 43.7782 56.8968 43.7879 56.8837L43.7994 56.8681C43.8763 56.766 43.9504 56.6619 44.0218 56.556L44.0368 56.5341C44.0458 56.521 44.0548 56.5079 44.0635 56.4946C44.1404 56.3779 44.2135 56.2589 44.2835 56.1381C44.2943 56.1194 44.3048 56.1006 44.3154 56.0818L44.3272 56.0607C44.3954 55.9396 44.4612 55.8171 44.5224 55.6922L44.5292 55.6791C44.592 55.5504 44.6499 55.4191 44.7051 55.2868L44.7261 55.2364L44.7387 55.2055C44.7917 55.074 44.8416 54.9411 44.8869 54.8065C44.8922 54.7907 44.8969 54.7747 44.9021 54.7589C44.9437 54.6325 44.9815 54.5048 45.0162 54.376C45.018 54.3696 45.0199 54.3633 45.0219 54.357L45.0228 54.3543L45.0256 54.3451L45.0293 54.3325H45.5078V54.3335ZM32.9305 52.4957V50.563C32.9359 50.5647 32.9413 50.5661 32.9468 50.5676L32.9592 50.5711C33.1385 50.625 33.3186 50.6757 33.4995 50.7236C33.5248 50.7303 33.5501 50.7368 33.5755 50.7433L33.6212 50.755C33.7831 50.7968 33.9455 50.8363 34.1087 50.8734L34.1452 50.8819L34.1661 50.8868L34.1902 50.8923C34.3733 50.9329 34.5571 50.9701 34.7417 51.0048C34.7729 51.0107 34.8043 51.0163 34.8355 51.022L34.8701 51.0282C35.0393 51.0587 35.2091 51.0871 35.3795 51.1126L35.4179 51.1188L35.4426 51.1226C35.6291 51.1498 35.8164 51.1733 36.0042 51.1945L36.0736 51.2021L36.1381 51.209C36.3171 51.2279 36.4964 51.2446 36.6764 51.2581C36.6887 51.2589 36.701 51.2603 36.7134 51.2611C36.903 51.2749 37.0933 51.2846 37.2841 51.2922L37.3339 51.2941L37.4229 51.2972C37.6148 51.3033 37.807 51.3076 38.0001 51.3076C38.193 51.3076 38.3853 51.3033 38.5772 51.2972C38.6235 51.2957 38.6698 51.2941 38.7161 51.2922C38.9068 51.2846 39.0972 51.2749 39.2868 51.2611L39.305 51.2596L39.3239 51.2581C39.5037 51.2447 39.6832 51.2279 39.8622 51.209C39.9067 51.2043 39.9512 51.1996 39.9956 51.1946C40.1836 51.1734 40.3711 51.15 40.5578 51.1226C40.5692 51.121 40.5805 51.1191 40.5918 51.1173L40.6192 51.1129C40.7905 51.0873 40.961 51.0587 41.1313 51.0279L41.2043 51.0148L41.2573 51.0051C41.4423 50.9702 41.6269 50.933 41.8106 50.8923C41.8367 50.8866 41.8626 50.8801 41.8887 50.8741C42.0533 50.8368 42.2174 50.7968 42.381 50.7546L42.409 50.7474L42.453 50.7362L42.4991 50.7241C42.6807 50.6759 42.8618 50.625 43.0419 50.5709L43.0559 50.567L43.0576 50.5665L43.0696 50.5632V52.4957C43.0696 52.7009 43.0575 52.905 43.0334 53.1036C42.8994 54.2237 42.3852 55.28 41.585 56.079C40.6276 57.0365 39.3545 57.5638 38.0002 57.5638C37.6796 57.5638 37.3649 57.5339 37.0596 57.4765C34.9223 57.0745 33.2326 55.3284 32.967 53.1019C32.9427 52.9049 32.9305 52.7011 32.9305 52.4957ZM43.7543 47.9918C41.9284 48.7334 39.9921 49.1094 37.9995 49.1094C37.7505 49.1094 37.5022 49.1036 37.2551 49.0919C37.1201 49.0854 36.9857 49.0769 36.8513 49.0671C35.3861 48.9593 33.9575 48.6445 32.5878 48.1264C32.4729 48.083 32.3587 48.038 32.2447 47.9918H32.2445L32.2438 47.9915C28.7762 46.5868 25.945 43.9643 24.2718 40.6069C23.211 38.478 22.6729 36.182 22.6729 33.783V32.8031V28.2799C22.8472 28.2731 23.0199 28.2647 23.1924 28.2564L23.3194 28.2503C23.3603 28.2484 23.4014 28.2466 23.4426 28.2448L23.4432 28.2448C23.5074 28.242 23.5718 28.2392 23.6355 28.2358C23.9608 28.2187 24.2838 28.1993 24.6045 28.1777C24.6669 28.1735 24.7286 28.1687 24.7903 28.1639L24.7905 28.1639L24.7908 28.1639L24.791 28.1638L24.8635 28.1583L24.9098 28.1548L24.952 28.1518L24.9525 28.1517C25.1562 28.1371 25.3602 28.1224 25.5619 28.1057C25.6493 28.0986 25.7359 28.0906 25.8225 28.0825C25.872 28.078 25.9215 28.0734 25.9712 28.069L26.1118 28.0565L26.1119 28.0565L26.1119 28.0565L26.112 28.0565C26.2438 28.0449 26.3756 28.0332 26.5062 28.0205C26.6024 28.011 26.6977 28.0008 26.793 27.9905L26.793 27.9905L26.793 27.9905L26.7931 27.9905L26.9359 27.9752L27.0545 27.9628L27.0551 27.9627C27.1825 27.9494 27.3099 27.9362 27.4363 27.9217C27.5393 27.91 27.6415 27.8973 27.7437 27.8847L27.7442 27.8846L27.8753 27.8684L27.9755 27.8563L27.9756 27.8563C28.1013 27.8411 28.2271 27.8259 28.3517 27.8095C28.4601 27.7953 28.5675 27.7803 28.675 27.7652L28.6752 27.7652L28.6754 27.7652L28.795 27.7485L28.8938 27.7348C29.014 27.7182 29.1342 27.7016 29.2535 27.684C29.3675 27.6672 29.4805 27.6494 29.5936 27.6315L29.5943 27.6314L29.6941 27.6157L29.7886 27.601C29.9067 27.5825 30.0248 27.5641 30.142 27.5447C30.2525 27.5264 30.3621 27.5072 30.4718 27.488L30.4718 27.488L30.579 27.4693L30.6576 27.4555C30.7774 27.4347 30.8971 27.4138 31.0158 27.3921C31.1341 27.3704 31.2514 27.3477 31.3687 27.325L31.4491 27.3094L31.4944 27.3007L31.4947 27.3007C31.6224 27.2761 31.7502 27.2514 31.8769 27.2257C32.0054 27.1996 32.1329 27.1725 32.2605 27.1454L32.304 27.1362L32.3128 27.1343C32.4501 27.1052 32.5874 27.076 32.7237 27.0458C32.8497 27.0177 32.9747 26.9888 33.0998 26.9598L33.146 26.9491L33.1842 26.9402C33.3087 26.9113 33.4332 26.8823 33.5568 26.8524C33.6964 26.8186 33.8348 26.7837 33.9734 26.7487C34.1083 26.7146 34.2429 26.6804 34.3768 26.6451C34.514 26.6091 34.6503 26.5719 34.7863 26.5347C34.9192 26.4982 35.0518 26.4616 35.1838 26.4241C35.3184 26.3857 35.4521 26.3466 35.5857 26.307C35.7167 26.2684 35.8472 26.2293 35.9771 26.1894C36.1094 26.1488 36.2411 26.1074 36.3723 26.0656C36.5011 26.0246 36.6293 25.9832 36.757 25.941C36.8869 25.8981 37.0163 25.8546 37.145 25.8105C37.2717 25.7671 37.398 25.7232 37.5238 25.6786C37.6513 25.6335 37.7781 25.588 37.9046 25.5417C38.0295 25.4958 38.1539 25.4494 38.278 25.4025C38.4026 25.3553 38.527 25.3076 38.6506 25.2592C38.774 25.2109 38.8967 25.1618 39.0192 25.1123C39.1412 25.063 39.2629 25.0134 39.3839 24.9629C39.5056 24.9121 39.6263 24.8604 39.7469 24.8084C39.8661 24.7569 39.9854 24.7054 40.1036 24.6528C40.2239 24.5993 40.3431 24.5448 40.4622 24.4902C40.5786 24.4369 40.695 24.3834 40.8102 24.3289C40.9292 24.2727 41.047 24.2154 41.1647 24.158L41.2183 24.1318C41.314 24.0852 41.4096 24.0386 41.5043 23.9911C41.6103 23.938 41.7154 23.8836 41.8205 23.8293L41.8545 23.8117L41.9047 23.7858L41.9049 23.7857L41.905 23.7856C41.9988 23.7372 42.0925 23.6889 42.1854 23.6394C42.2911 23.5833 42.3957 23.5259 42.5003 23.4685L42.5327 23.4507L42.6018 23.4129L42.6019 23.4129C42.6861 23.3669 42.7703 23.3209 42.8537 23.2739C42.9469 23.2215 43.0391 23.168 43.1313 23.1145L43.2 23.0747L43.2786 23.0292C43.3557 22.9846 43.4328 22.9401 43.5091 22.8947C43.603 22.8388 43.696 22.7817 43.789 22.7246L43.7891 22.7245L43.854 22.6846L43.936 22.6345L43.9362 22.6344C44.0086 22.5902 44.081 22.546 44.1526 22.5009C44.2455 22.4425 44.3373 22.3829 44.429 22.3233L44.498 22.2786L44.581 22.225L44.5812 22.2249L44.5814 22.2248C44.6488 22.1814 44.7162 22.138 44.7829 22.0937C44.8781 22.0304 44.9722 21.9659 45.0664 21.9013L45.0664 21.9013L45.0664 21.9013L45.0664 21.9013L45.1336 21.8552L45.225 21.793C45.284 21.7529 45.343 21.7128 45.4014 21.672C45.4985 21.6039 45.5945 21.5345 45.6904 21.465L45.7632 21.4124C45.7921 21.3915 45.8211 21.3707 45.8502 21.35L45.8506 21.3497C45.9031 21.3122 45.9556 21.2746 46.0074 21.2363C46.1224 21.1513 46.236 21.0645 46.3496 20.9777L46.4045 20.9357C46.4312 20.9153 46.4581 20.8951 46.4851 20.8748C46.524 20.8456 46.5629 20.8163 46.6012 20.7865C46.7971 20.6341 46.9912 20.4794 47.183 20.3223C47.2138 20.433 47.2459 20.5439 47.2793 20.6549L47.2877 20.6827L47.3 20.7218L47.3149 20.7696C47.3374 20.8426 47.3599 20.9155 47.3834 20.9885L47.3963 21.0276L47.413 21.0776L47.4287 21.1246L47.4346 21.1423L47.4346 21.1424L47.4347 21.1425C47.4547 21.2024 47.4746 21.2623 47.4954 21.3222C47.5095 21.3632 47.5242 21.4041 47.5389 21.4449L47.5389 21.4451L47.539 21.4453L47.539 21.4455L47.5472 21.4682C47.5695 21.5306 47.5917 21.5932 47.6149 21.6556C47.6335 21.7057 47.6525 21.7557 47.6716 21.8057L47.672 21.8069C47.6952 21.8675 47.7183 21.9282 47.7422 21.9888C47.7624 22.0401 47.7829 22.0912 47.8037 22.1423C47.8277 22.2018 47.852 22.2613 47.8768 22.3206C47.8985 22.3725 47.9205 22.4242 47.9426 22.4759C47.9676 22.534 47.9928 22.5922 48.0186 22.6502C48.0417 22.7026 48.0652 22.7551 48.0889 22.8072C48.1148 22.8642 48.1412 22.9212 48.1679 22.978L48.1825 23.0094L48.1827 23.0098C48.2024 23.0517 48.222 23.0936 48.2421 23.1354C48.2691 23.1915 48.2966 23.2473 48.3242 23.3031L48.3328 23.3206C48.356 23.3675 48.3791 23.4142 48.4027 23.461C48.4264 23.5078 48.4507 23.5545 48.475 23.6011L48.4871 23.6243L48.5044 23.6576L48.5047 23.6583C48.5263 23.6998 48.5478 23.7412 48.5698 23.7825C48.5912 23.8226 48.6131 23.8625 48.6351 23.9023L48.6352 23.9025L48.657 23.9422L48.6776 23.9798L48.7072 24.034C48.7179 24.0534 48.7287 24.0727 48.7395 24.0921L48.7443 24.1005C48.7664 24.1398 48.789 24.1787 48.8117 24.2176L48.8317 24.2522L48.8628 24.3061C48.8835 24.3421 48.9042 24.3782 48.9253 24.4139C48.9469 24.4502 48.9691 24.4858 48.991 24.5218C49.0657 24.6455 49.142 24.7678 49.2199 24.8888L49.248 24.9328L49.2482 24.9331L49.2483 24.9331C49.2647 24.959 49.2812 24.9849 49.298 25.0105C49.3291 25.0578 49.3608 25.1045 49.3925 25.1511L49.3928 25.1515L49.4134 25.1819L49.4428 25.2254L49.4431 25.226C49.4612 25.2529 49.4793 25.2798 49.4978 25.3064C49.5331 25.3574 49.5691 25.4077 49.6051 25.458L49.6163 25.4737L49.6642 25.5409C49.6773 25.5593 49.6905 25.5776 49.7038 25.5959C49.744 25.6511 49.7851 25.7056 49.8261 25.7599L49.8708 25.8193C49.8857 25.8391 49.9007 25.8589 49.9159 25.8786C49.9576 25.9328 50 25.9862 50.0424 26.0397C50.0729 26.0781 50.1034 26.1163 50.1341 26.1541C50.1772 26.2071 50.2208 26.2596 50.2646 26.3119C50.2957 26.3489 50.3269 26.3857 50.3584 26.4223C50.4029 26.4742 50.4479 26.5255 50.4932 26.5764C50.5247 26.6119 50.5563 26.647 50.5881 26.6819C50.6344 26.7327 50.681 26.7833 50.728 26.8332L50.7503 26.8567L50.7711 26.8785L50.7988 26.9074L50.8228 26.9322C50.8711 26.9823 50.9196 27.0321 50.9687 27.0812C50.9951 27.1075 51.0218 27.1334 51.0485 27.1594L51.062 27.1725C51.1128 27.222 51.1635 27.2714 51.215 27.3197C51.2349 27.3383 51.255 27.3565 51.275 27.3748L51.3048 27.402C51.3587 27.4514 51.4125 27.5006 51.4671 27.5487L51.4936 27.5715L51.5137 27.5885L51.5464 27.6163C51.6056 27.6672 51.6647 27.7181 51.725 27.7674L51.7425 27.7813L51.7639 27.7983C51.9814 27.9745 52.205 28.139 52.4336 28.2918L52.4645 28.3127C52.4802 28.3234 52.4959 28.3341 52.5119 28.3445C52.5588 28.3751 52.6062 28.4043 52.6537 28.4335L52.6837 28.452C52.7199 28.4743 52.7558 28.4973 52.7922 28.519C52.8461 28.551 52.9006 28.5815 52.955 28.6121L52.9833 28.6281C53.0149 28.646 53.0465 28.664 53.0783 28.6811C53.1245 28.7061 53.1712 28.7299 53.2178 28.7537L53.2178 28.7538L53.2179 28.7538L53.2354 28.7627C53.2486 28.7695 53.2617 28.7764 53.2749 28.7834L53.2804 28.7863C53.2955 28.7943 53.3106 28.8022 53.3257 28.8097V32.8023V33.7823C53.3257 34.532 53.2731 35.2716 53.1686 35.9994C52.9384 37.6001 52.4562 39.1426 51.7269 40.6063L51.7266 40.607C50.054 43.9642 47.2229 46.5865 43.7543 47.9918ZM57.4247 47.7555C56.3252 48.8979 54.8464 49.5272 53.2607 49.5272H45.6929C48.9439 47.9387 51.6271 45.3833 53.3739 42.1957H55.1174V43.402C55.1174 44.0088 55.6094 44.5007 56.2162 44.5007C56.8231 44.5007 57.315 44.0087 57.315 43.402V42.1894C57.8965 42.1624 58.4531 42.0396 58.9705 41.8378L59.0351 43.5271C59.0964 45.1114 58.5242 46.6132 57.4247 47.7555ZM57.3151 39.9856V39.0275C57.3152 38.4207 56.8232 37.9287 56.2163 37.9287C55.6094 37.9287 55.1175 38.4207 55.1175 39.0275V39.9979H54.3916C54.407 39.9575 54.4217 39.9169 54.4365 39.8763L54.4588 39.8151L54.4736 39.7752L54.4895 39.732L54.5065 39.6852C54.5575 39.5431 54.607 39.4007 54.6542 39.2575L54.6625 39.2314L54.6708 39.2055C54.7122 39.0782 54.7522 38.9503 54.7907 38.822C54.8036 38.7792 54.816 38.7361 54.8285 38.6932L54.8312 38.684C54.8615 38.58 54.8908 38.4757 54.9191 38.3712L54.9271 38.3415L54.9424 38.2849L54.9567 38.2313C54.9895 38.1061 55.0209 37.9804 55.0509 37.8544L55.0586 37.8227C55.0614 37.8115 55.0642 37.8002 55.0669 37.789C55.1013 37.6414 55.1335 37.4934 55.1641 37.3447C55.1692 37.3201 55.174 37.2953 55.1788 37.2706L55.1884 37.2216C55.2103 37.1115 55.2312 37.001 55.251 36.8904L55.2645 36.8136L55.2763 36.7447C55.2957 36.6308 55.3137 36.5167 55.3307 36.4023L55.3364 36.3652C55.3403 36.3398 55.3442 36.3143 55.3478 36.2888C55.3692 36.1381 55.3888 35.987 55.4064 35.8354L55.4106 35.7966L55.4118 35.7852L55.4161 35.744C55.4296 35.6214 55.4419 35.4987 55.4528 35.3755L55.4582 35.3123L55.4647 35.2336L55.465 35.23C55.4739 35.1187 55.4818 35.0071 55.4887 34.8952L55.4916 34.8489C55.4935 34.8192 55.4954 34.7895 55.4971 34.7597C55.5125 34.475 55.5217 34.1891 55.5236 33.9018H57.0697C58.7509 33.9018 60.1187 35.269 60.1187 36.9493C60.119 38.5476 58.8818 39.8601 57.3151 39.9856ZM42.6789 43.5323C42.1798 43.8777 41.4953 43.7534 41.15 43.2544C40.4336 42.2198 39.2558 41.6021 37.9999 41.6021C36.7438 41.6021 35.5663 42.2198 34.8499 43.2544C34.5046 43.7535 33.8199 43.8777 33.3209 43.5323C32.8219 43.1868 32.6976 42.5024 33.0431 42.0033C34.1699 40.376 36.0229 39.4044 38 39.4044C39.9771 39.4044 41.8302 40.3759 42.9571 42.0033C43.3022 42.5022 43.1778 43.1869 42.6789 43.5323ZM39.0987 6.53365H40.1528C40.7597 6.53365 41.2518 7.02569 41.2516 7.63243C41.2516 8.23917 40.7597 8.73122 40.1528 8.73122H39.0987V9.78532C39.0987 10.3921 38.6068 10.8841 38 10.8841C37.3932 10.8841 36.9012 10.3922 36.9012 9.78532V8.73122H35.8471C35.2403 8.73122 34.7483 8.23932 34.7483 7.63243C34.7483 7.02569 35.2402 6.53365 35.8471 6.53365H36.9012V5.47955C36.9012 4.87281 37.3931 4.38077 38 4.38077C38.6067 4.38077 39.0987 4.87266 39.0987 5.47955V6.53365ZM29.8125 34.9181C30.4192 34.9181 30.9111 34.4262 30.9111 33.8195V32.5928C30.9111 31.9861 30.4192 31.4942 29.8125 31.4942C29.2058 31.4942 28.7139 31.9861 28.7139 32.5928V33.8195C28.7139 34.4262 29.2058 34.9181 29.8125 34.9181ZM47.3286 33.8195C47.3286 34.4262 46.8369 34.9181 46.23 34.9181C45.6232 34.9181 45.1313 34.4262 45.1313 33.8195V32.5928C45.1313 31.9861 45.6232 31.4942 46.23 31.4942C46.8369 31.4942 47.3286 31.9861 47.3286 32.5928V33.8195Z" fill="url(#paint0_linear)"/>
<defs>
<linearGradient id="paint0_linear" x1="13.6835" y1="0.00012207" x2="82.1576" y2="44.402" gradientUnits="userSpaceOnUse">
<stop stop-color="#F91DF0"/>
<stop offset="0.677083" stop-color="#56CCF2"/>
</linearGradient>
</defs>
</svg>
