<svg width="100" height="28" viewBox="0 0 100 28" fill="none" xmlns="http://www.w3.org/2000/svg">
<path d="M53.0165 9.36176H48.7923L48.0074 11.3026H45.1247L49.5344 1.31295H52.3172L56.7412 11.3026H53.8014L53.0165 9.36176ZM52.1888 7.2782L50.9044 4.08151L49.62 7.2782H52.1888Z" fill="#171923"/>
<path d="M62.5976 11.5024C61.551 11.5024 60.6091 11.2836 59.7719 10.8459C58.9442 10.3988 58.2925 9.78037 57.8168 8.99072C57.3411 8.20106 57.1032 7.30675 57.1032 6.30778C57.1032 5.30881 57.3411 4.4145 57.8168 3.62484C58.2925 2.83518 58.9442 2.22153 59.7719 1.78389C60.6091 1.33674 61.551 1.11316 62.5976 1.11316C63.5109 1.11316 64.3339 1.2749 65.0664 1.59837C65.799 1.92185 66.4079 2.38803 66.8931 2.99692L65.095 4.62381C64.448 3.84366 63.6631 3.45359 62.7403 3.45359C62.198 3.45359 61.7128 3.57252 61.2846 3.81037C60.866 4.04822 60.5378 4.38596 60.2999 4.8236C60.0716 5.25173 59.9574 5.74646 59.9574 6.30778C59.9574 6.8691 60.0716 7.36859 60.2999 7.80623C60.5378 8.23436 60.866 8.56734 61.2846 8.80519C61.7128 9.04304 62.198 9.16197 62.7403 9.16197C63.6631 9.16197 64.448 8.77189 65.095 7.99175L66.8931 9.61864C66.4079 10.2275 65.799 10.6937 65.0664 11.0172C64.3339 11.3407 63.5109 11.5024 62.5976 11.5024Z" fill="#171923"/>
<path d="M72.7339 8.64821H71.1927V11.3026H68.367V1.31295H72.9337C73.8376 1.31295 74.6225 1.46518 75.2884 1.76962C75.9544 2.06456 76.4682 2.49268 76.8297 3.05401C77.1912 3.60582 77.372 4.25752 77.372 5.00912C77.372 5.73219 77.2007 6.36486 76.8582 6.90716C76.5252 7.43994 76.0448 7.85855 75.4169 8.163L77.5718 11.3026H74.5463L72.7339 8.64821ZM74.5178 5.00912C74.5178 4.54294 74.3703 4.18141 74.0754 3.92453C73.7805 3.66766 73.3428 3.53922 72.7625 3.53922H71.1927V6.46476H72.7625C73.3428 6.46476 73.7805 6.34108 74.0754 6.09372C74.3703 5.83684 74.5178 5.47531 74.5178 5.00912Z" fill="#171923"/>
<path d="M83.7544 11.5024C82.2703 11.5024 81.1143 11.0981 80.2866 10.2894C79.4684 9.48068 79.0593 8.33425 79.0593 6.85008V1.31295H81.8849V6.76445C81.8849 8.36279 82.5176 9.16197 83.783 9.16197C85.0388 9.16197 85.6667 8.36279 85.6667 6.76445V1.31295H88.4496V6.85008C88.4496 8.33425 88.0357 9.48068 87.208 10.2894C86.3898 11.0981 85.2386 11.5024 83.7544 11.5024Z" fill="#171923"/>
<path d="M96.7462 11.3026L94.6769 8.20581L92.6362 11.3026H89.411L93.0501 6.2507L89.568 1.31295H92.7504L94.7483 4.19568L96.7177 1.31295H99.7717L96.2896 6.13653L100 11.3026H96.7462Z" fill="#171923"/>
<path fill-rule="evenodd" clip-rule="evenodd" d="M5.83678 4.74215C6.89996 4.21257 8.50045 3.71045 10.7317 3.71045C12.9628 3.71045 14.5883 4.2124 15.6747 4.73771C16.2161 4.99948 16.6195 5.26504 16.8946 5.47253C17.0321 5.57625 17.1376 5.66545 17.2122 5.73243C17.2494 5.76592 17.2791 5.79387 17.3011 5.81532C17.3122 5.82604 17.3213 5.83515 17.3286 5.84251C17.3322 5.84619 17.3354 5.84943 17.3381 5.85223L17.3419 5.85608L17.3435 5.85775L17.3442 5.85852C17.3446 5.85888 17.3449 5.85924 16.7255 6.45047L17.3449 5.85924C17.6714 6.20132 17.6588 6.74332 17.3167 7.06985C16.9764 7.39468 16.4383 7.38389 16.1112 7.04697C16.1111 7.0468 16.1109 7.0466 16.1106 7.04638C16.1099 7.04565 16.1089 7.04463 16.1075 7.04331C16.1012 7.03716 16.088 7.02464 16.068 7.00662C16.0278 6.97058 15.96 6.91261 15.8634 6.83973C15.6702 6.69401 15.3619 6.48863 14.9293 6.27946C14.0677 5.86289 12.6963 5.42296 10.7317 5.42296C8.76736 5.42296 7.42804 5.86273 6.60032 6.27502C6.18441 6.48219 5.89244 6.68506 5.71175 6.82788C5.71062 6.82878 5.70949 6.82967 5.70836 6.83056V9.72029L10.4285 7.93304C10.6221 7.85973 10.8358 7.85905 11.0299 7.93114L17.0237 10.1574C17.3592 10.282 17.5818 10.6022 17.5818 10.9601V14.3851C17.5818 15.0998 17.3392 15.8306 16.9835 16.5204C16.6238 17.2179 16.1211 17.9258 15.5347 18.61C14.3625 19.9775 12.7999 21.3146 11.1974 22.3533C10.9141 22.5369 10.5493 22.5369 10.266 22.3533C8.65928 21.3119 7.12308 19.9718 5.97877 18.6016C4.86866 17.2724 3.99585 15.7587 3.99585 14.3851C3.99585 13.9122 4.37921 13.5289 4.85211 13.5289C5.325 13.5289 5.70836 13.9122 5.70836 14.3851C5.70836 15.1236 6.2341 16.2358 7.29317 17.5039C8.2097 18.6013 9.42913 19.6999 10.7322 20.6041C12.0443 19.6972 13.2915 18.5956 14.2345 17.4955C14.7612 16.881 15.179 16.2832 15.4615 15.7355C15.7479 15.1801 15.8693 14.7265 15.8693 14.3851V11.5555L10.7346 9.6483L5.15531 11.7609C4.89222 11.8605 4.59699 11.8245 4.36551 11.6646C4.13403 11.5048 3.99585 11.2414 3.99585 10.9601V6.45047C3.99585 6.23993 4.07342 6.03677 4.21374 5.8798L4.85211 6.45047C4.21374 5.8798 4.21409 5.87941 4.21445 5.87901L4.2152 5.87817L4.21682 5.87637L4.22056 5.87225C4.22327 5.86927 4.22642 5.86585 4.23001 5.86199C4.23719 5.85427 4.24613 5.8448 4.25687 5.83371C4.27834 5.81154 4.30699 5.78285 4.34303 5.74863C4.41511 5.68018 4.5168 5.58952 4.64982 5.48438C4.91598 5.274 5.30724 5.00592 5.83678 4.74215Z" fill="#171923"/>
<path fill-rule="evenodd" clip-rule="evenodd" d="M1.71251 4.94741C2.75955 3.8522 5.86811 1.71251 10.7032 1.71251V0C5.01072 0 1.32391 2.68523 0.190735 4.08503L0 4.32064V15.1272C0 16.3928 0.51747 17.6598 1.25495 18.8342C1.99822 20.0178 3.0098 21.1784 4.10312 22.2493C6.28981 24.3911 8.8897 26.2572 10.59 27.326L11.5014 25.8761C9.87182 24.8518 7.37699 23.0588 5.30142 21.0259C4.26362 20.0094 3.35219 18.9537 2.70523 17.9235C2.05249 16.884 1.71251 15.9394 1.71251 15.1272V4.94741Z" fill="#171923"/>
<path fill-rule="evenodd" clip-rule="evenodd" d="M19.6939 4.94741C18.6468 3.8522 15.5383 1.71251 10.7032 1.71251V0C16.3957 0 20.0825 2.68523 21.2157 4.08503L21.4064 4.32064V15.1272C21.4064 16.3947 20.8839 17.6625 20.141 18.8367C19.392 20.0203 18.373 21.1807 17.2727 22.2513C15.0718 24.3927 12.4581 26.2582 10.7593 27.326L9.84794 25.8761C11.479 24.8508 13.9886 23.0573 16.0785 21.0239C17.1235 20.0071 18.0419 18.9513 18.6938 17.921C19.3518 16.8812 19.6939 15.9376 19.6939 15.1272V4.94741Z" fill="#171923"/>
<path fill-rule="evenodd" clip-rule="evenodd" d="M8.79089 11.9875C9.26378 11.9875 9.64714 12.3709 9.64714 12.8438C9.64714 14.0554 10.2567 15.0417 11.1927 15.5423C11.6097 15.7654 11.7669 16.2842 11.5439 16.7012C11.3208 17.1182 10.802 17.2754 10.385 17.0524C8.86636 16.2401 7.93463 14.6576 7.93463 12.8438C7.93463 12.3709 8.31799 11.9875 8.79089 11.9875Z" fill="#171923"/>
<path fill-rule="evenodd" clip-rule="evenodd" d="M12.7867 11.9875C12.3139 11.9875 11.9305 12.3709 11.9305 12.8438C11.9305 14.0554 11.321 15.0417 10.385 15.5423C9.96797 15.7654 9.81074 16.2842 10.0338 16.7012C10.2568 17.1182 10.7757 17.2754 11.1927 17.0524C12.7113 16.2401 13.643 14.6576 13.643 12.8438C13.643 12.3709 13.2596 11.9875 12.7867 11.9875Z" fill="#171923"/>
<path d="M48.164 18.9626C47.6839 18.9626 47.2492 18.8584 46.8597 18.6501C46.4748 18.4373 46.1714 18.1452 45.9495 17.7738C45.7321 17.4025 45.6234 16.9836 45.6234 16.5171C45.6234 16.0507 45.7343 15.6318 45.9562 15.2604C46.1782 14.8891 46.4816 14.5992 46.8665 14.3909C47.256 14.1781 47.6907 14.0717 48.1708 14.0717C48.5602 14.0717 48.9157 14.1396 49.2373 14.2754C49.5588 14.4113 49.8305 14.6083 50.0524 14.8664L49.4818 15.4031C49.1376 15.0317 48.7142 14.8461 48.2115 14.8461C47.8854 14.8461 47.5934 14.9185 47.3352 15.0634C47.0771 15.2038 46.8756 15.4008 46.7306 15.6544C46.5857 15.908 46.5133 16.1956 46.5133 16.5171C46.5133 16.8387 46.5857 17.1262 46.7306 17.3798C46.8756 17.6334 47.0771 17.8327 47.3352 17.9776C47.5934 18.118 47.8854 18.1882 48.2115 18.1882C48.7142 18.1882 49.1376 18.0003 49.4818 17.6244L50.0524 18.1678C49.8305 18.4259 49.5565 18.6229 49.2305 18.7588C48.9089 18.8947 48.5534 18.9626 48.164 18.9626Z" fill="#171923"/>
<path d="M52.8837 17.2168V18.8947H52.0006V17.2304L50.1325 14.1396H51.0768L52.4693 16.456L53.8755 14.1396H54.745L52.8837 17.2168Z" fill="#171923"/>
<path d="M58.6262 16.422C58.8889 16.5081 59.0972 16.653 59.2512 16.8568C59.4052 17.056 59.4822 17.3051 59.4822 17.604C59.4822 18.0161 59.3237 18.3354 59.0066 18.5618C58.6896 18.7837 58.2277 18.8947 57.6209 18.8947H55.2569V14.1396H57.485C58.0466 14.1396 58.4791 14.2505 58.7825 14.4724C59.0859 14.6898 59.2376 14.991 59.2376 15.3759C59.2376 15.6114 59.1833 15.8197 59.0746 16.0009C58.9659 16.182 58.8164 16.3224 58.6262 16.422ZM56.14 14.8325V16.1435H57.3899C57.6979 16.1435 57.9334 16.0892 58.0964 15.9805C58.264 15.8673 58.3477 15.7042 58.3477 15.4914C58.3477 15.274 58.264 15.111 58.0964 15.0023C57.9334 14.8891 57.6979 14.8325 57.3899 14.8325H56.14ZM57.5665 18.2018C58.2504 18.2018 58.5923 17.9731 58.5923 17.5157C58.5923 17.0583 58.2504 16.8296 57.5665 16.8296H56.14V18.2018H57.5665Z" fill="#171923"/>
<path d="M63.9909 18.1542V18.8947H60.4246V14.1396H63.8958V14.88H61.3077V16.1163H63.6037V16.8432H61.3077V18.1542H63.9909Z" fill="#171923"/>
<path d="M68.0866 18.8947L67.1152 17.5021C67.0744 17.5066 67.0133 17.5089 66.9318 17.5089H65.8585V18.8947H64.9754V14.1396H66.9318C67.3439 14.1396 67.7016 14.2075 68.005 14.3434C68.313 14.4792 68.5485 14.674 68.7115 14.9276C68.8745 15.1812 68.9561 15.4823 68.9561 15.831C68.9561 16.1888 68.8677 16.4967 68.6911 16.7549C68.519 17.013 68.27 17.2055 67.9439 17.3323L69.0376 18.8947H68.0866ZM68.0662 15.831C68.0662 15.5276 67.9666 15.2944 67.7673 15.1314C67.568 14.9683 67.2759 14.8868 66.891 14.8868H65.8585V16.782H66.891C67.2759 16.782 67.568 16.7005 67.7673 16.5375C67.9666 16.3699 68.0662 16.1345 68.0662 15.831Z" fill="#171923"/>
<path d="M47.4371 25.9268C47.0703 25.9268 46.7148 25.8747 46.3706 25.7706C46.031 25.6664 45.7615 25.5283 45.5623 25.3562L45.8679 24.6701C46.0627 24.8241 46.3004 24.9509 46.5812 25.0505C46.8665 25.1456 47.1518 25.1932 47.4371 25.1932C47.7903 25.1932 48.053 25.1366 48.2251 25.0233C48.4017 24.9101 48.49 24.7607 48.49 24.575C48.49 24.4391 48.4402 24.3282 48.3406 24.2422C48.2455 24.1516 48.1232 24.0814 47.9738 24.0316C47.8243 23.9818 47.6205 23.9251 47.3624 23.8617C47.0001 23.7757 46.7057 23.6897 46.4793 23.6036C46.2574 23.5176 46.0649 23.384 45.9019 23.2028C45.7434 23.0172 45.6642 22.7681 45.6642 22.4556C45.6642 22.1929 45.7343 21.9552 45.8747 21.7423C46.0196 21.525 46.2348 21.3529 46.5201 21.2261C46.8099 21.0993 47.1631 21.0359 47.5798 21.0359C47.8696 21.0359 48.1549 21.0721 48.4357 21.1446C48.7165 21.217 48.9587 21.3212 49.1625 21.457L48.884 22.1431C48.6757 22.0209 48.4583 21.928 48.2319 21.8646C48.0055 21.8012 47.7858 21.7695 47.573 21.7695C47.2243 21.7695 46.9639 21.8284 46.7918 21.9461C46.6242 22.0639 46.5404 22.2201 46.5404 22.4148C46.5404 22.5507 46.588 22.6617 46.6831 22.7477C46.7827 22.8337 46.9073 22.9017 47.0567 22.9515C47.2062 23.0013 47.4099 23.0579 47.6681 23.1213C48.0213 23.2028 48.3111 23.2889 48.5376 23.3794C48.764 23.4655 48.9565 23.5991 49.115 23.7802C49.278 23.9614 49.3595 24.2059 49.3595 24.5139C49.3595 24.7765 49.2871 25.0143 49.1421 25.2271C49.0018 25.44 48.7866 25.6098 48.4968 25.7366C48.207 25.8634 47.8537 25.9268 47.4371 25.9268Z" fill="#171923"/>
<path d="M53.8015 25.1184V25.8589H50.2352V21.1038H53.7064V21.8442H51.1183V23.0806H53.4143V23.8074H51.1183V25.1184H53.8015Z" fill="#171923"/>
<path d="M57.8971 25.8589L56.9257 24.4663C56.885 24.4708 56.8238 24.4731 56.7423 24.4731H55.669V25.8589H54.7859V21.1038H56.7423C57.1544 21.1038 57.5122 21.1717 57.8156 21.3076C58.1235 21.4434 58.359 21.6382 58.5221 21.8918C58.6851 22.1454 58.7666 22.4465 58.7666 22.7952C58.7666 23.153 58.6783 23.461 58.5017 23.7191C58.3296 23.9772 58.0805 24.1697 57.7545 24.2965L58.8481 25.8589H57.8971ZM57.8767 22.7952C57.8767 22.4918 57.7771 22.2586 57.5778 22.0956C57.3786 21.9325 57.0865 21.851 56.7016 21.851H55.669V23.7463H56.7016C57.0865 23.7463 57.3786 23.6647 57.5778 23.5017C57.7771 23.3342 57.8767 23.0987 57.8767 22.7952Z" fill="#171923"/>
<path d="M64.1021 21.1038L62.0303 25.8589H61.1608L59.0821 21.1038H60.0399L61.6227 24.772L63.219 21.1038H64.1021Z" fill="#171923"/>
<path d="M64.6039 21.1038H65.487V25.8589H64.6039V21.1038Z" fill="#171923"/>
<path d="M68.974 25.9268C68.494 25.9268 68.0593 25.8226 67.6698 25.6143C67.2849 25.4015 66.9814 25.1094 66.7595 24.738C66.5422 24.3667 66.4335 23.9478 66.4335 23.4813C66.4335 23.0149 66.5444 22.596 66.7663 22.2246C66.9882 21.8533 67.2917 21.5635 67.6766 21.3551C68.0661 21.1423 68.5008 21.0359 68.9808 21.0359C69.3703 21.0359 69.7258 21.1038 70.0473 21.2397C70.3689 21.3755 70.6406 21.5725 70.8625 21.8306L70.2919 22.3673C69.9477 21.9959 69.5243 21.8103 69.0216 21.8103C68.6955 21.8103 68.4034 21.8827 68.1453 22.0276C67.8872 22.168 67.6856 22.365 67.5407 22.6186C67.3958 22.8722 67.3234 23.1598 67.3234 23.4813C67.3234 23.8029 67.3958 24.0904 67.5407 24.344C67.6856 24.5976 67.8872 24.7969 68.1453 24.9418C68.4034 25.0822 68.6955 25.1524 69.0216 25.1524C69.5243 25.1524 69.9477 24.9645 70.2919 24.5886L70.8625 25.132C70.6406 25.3902 70.3666 25.5872 70.0405 25.723C69.719 25.8589 69.3635 25.9268 68.974 25.9268Z" fill="#171923"/>
<path d="M75.275 25.1184V25.8589H71.7086V21.1038H75.1798V21.8442H72.5917V23.0806H74.8878V23.8074H72.5917V25.1184H75.275Z" fill="#171923"/>
<path d="M77.7335 25.9268C77.3667 25.9268 77.0112 25.8747 76.667 25.7706C76.3273 25.6664 76.0579 25.5283 75.8586 25.3562L76.1643 24.6701C76.359 24.8241 76.5968 24.9509 76.8776 25.0505C77.1629 25.1456 77.4482 25.1932 77.7335 25.1932C78.0867 25.1932 78.3494 25.1366 78.5215 25.0233C78.6981 24.9101 78.7864 24.7607 78.7864 24.575C78.7864 24.4391 78.7366 24.3282 78.6369 24.2422C78.5418 24.1516 78.4196 24.0814 78.2701 24.0316C78.1207 23.9818 77.9169 23.9251 77.6588 23.8617C77.2965 23.7757 77.0021 23.6897 76.7757 23.6036C76.5538 23.5176 76.3613 23.384 76.1983 23.2028C76.0398 23.0172 75.9605 22.7681 75.9605 22.4556C75.9605 22.1929 76.0307 21.9552 76.1711 21.7423C76.316 21.525 76.5311 21.3529 76.8164 21.2261C77.1063 21.0993 77.4595 21.0359 77.8761 21.0359C78.166 21.0359 78.4513 21.0721 78.732 21.1446C79.0128 21.217 79.2551 21.3212 79.4589 21.457L79.1804 22.1431C78.9721 22.0209 78.7547 21.928 78.5283 21.8646C78.3018 21.8012 78.0822 21.7695 77.8693 21.7695C77.5206 21.7695 77.2602 21.8284 77.0881 21.9461C76.9206 22.0639 76.8368 22.2201 76.8368 22.4148C76.8368 22.5507 76.8844 22.6617 76.9795 22.7477C77.0791 22.8337 77.2036 22.9017 77.3531 22.9515C77.5025 23.0013 77.7063 23.0579 77.9644 23.1213C78.3177 23.2028 78.6075 23.2889 78.8339 23.3794C79.0604 23.4655 79.2528 23.5991 79.4113 23.7802C79.5744 23.9614 79.6559 24.2059 79.6559 24.5139C79.6559 24.7765 79.5834 25.0143 79.4385 25.2271C79.2981 25.44 79.083 25.6098 78.7932 25.7366C78.5033 25.8634 78.1501 25.9268 77.7335 25.9268Z" fill="#171923"/>
<circle cx="34.3644" cy="13.586" r="2.28335" fill="#171923"/>
</svg>
