<svg width="94" height="75" viewBox="0 0 94 75" fill="none" xmlns="http://www.w3.org/2000/svg">
<path fill-rule="evenodd" clip-rule="evenodd" d="M48.7658 3.5659L57.9948 18.3777C58.5937 19.3388 57.9025 20.5838 56.77 20.5838H38.3122C37.1797 20.5838 36.4886 19.3388 37.0875 18.3777L46.3164 3.5659C46.8813 2.65936 48.201 2.65937 48.7658 3.5659ZM43.867 2.03971C45.5615 -0.6799 49.5207 -0.679904 51.2153 2.0397L60.4442 16.8515C62.2409 19.735 60.1675 23.4697 56.77 23.4697H38.3122C34.9147 23.4697 32.8414 19.735 34.6381 16.8515L43.867 2.03971ZM11.2351 66.342C11.7262 67.191 12.0073 68.1767 12.0073 69.228C12.0073 70.2793 11.7262 71.265 11.2351 72.114H22.8804C22.3893 71.265 22.1082 70.2793 22.1082 69.228C22.1082 68.1767 22.3893 67.191 22.8804 66.342H11.2351ZM24.9942 69.228C24.9942 67.6341 26.2863 66.342 27.8802 66.342C29.4741 66.342 30.7662 67.6341 30.7662 69.228C30.7662 70.8219 29.4741 72.114 27.8802 72.114C26.2863 72.114 24.9942 70.8219 24.9942 69.228ZM6.23528 63.456H6.7454C6.6481 63.112 6.59603 62.7489 6.59603 62.3737V32.7923C6.59603 30.6007 8.37267 28.824 10.5643 28.824H40.5065C42.6981 28.824 44.4747 30.6007 44.4747 32.7923V62.3737C44.4747 62.7489 44.4227 63.112 44.3254 63.456H48.0821H50.0354C49.9381 63.112 49.886 62.7489 49.886 62.3737V32.7923C49.886 30.6007 51.6627 28.824 53.8543 28.824H83.7965C85.9881 28.824 87.7647 30.6007 87.7647 32.7923V62.3737C87.7647 62.7489 87.7127 63.112 87.6153 63.456H87.7647C90.9525 63.456 93.5367 66.0402 93.5367 69.228C93.5367 72.4158 90.9525 75 87.7647 75H67.9235H48.0821H27.8802H6.23528C6.03605 75 5.83917 74.9899 5.64513 74.9702C2.73457 74.6746 0.463287 72.2166 0.463287 69.228C0.463287 66.0402 3.0475 63.456 6.23528 63.456ZM82.7649 66.342H72.9233C73.4144 67.191 73.6955 68.1767 73.6955 69.228C73.6955 70.2793 73.4144 71.265 72.9233 72.114H82.7649C82.2737 71.265 81.9927 70.2793 81.9927 69.228C81.9927 68.1767 82.2738 67.191 82.7649 66.342ZM62.9237 66.342L53.8543 66.342L53.0819 66.342C53.573 67.191 53.8541 68.1767 53.8541 69.228C53.8541 70.2793 53.573 71.265 53.0819 72.114H62.9237C62.4325 71.265 62.1515 70.2793 62.1515 69.228C62.1515 68.1767 62.4325 67.191 62.9237 66.342ZM67.9235 66.342C66.3296 66.342 65.0375 67.6341 65.0375 69.228C65.0375 70.8219 66.3296 72.114 67.9235 72.114C69.5173 72.114 70.8095 70.8219 70.8095 69.228C70.8095 67.6341 69.5173 66.342 67.9235 66.342ZM32.88 66.342L40.5065 66.342L43.0823 66.342C42.5912 67.191 42.3101 68.1767 42.3101 69.228C42.3101 70.2793 42.5912 71.265 43.0823 72.114H32.88C33.3711 71.265 33.6522 70.2793 33.6522 69.228C33.6522 68.1767 33.3711 67.191 32.88 66.342ZM84.8787 69.228C84.8787 67.6341 86.1708 66.342 87.7647 66.342C89.3586 66.342 90.6507 67.6341 90.6507 69.228C90.6507 70.8219 89.3586 72.114 87.7647 72.114C86.1708 72.114 84.8787 70.8219 84.8787 69.228ZM50.9681 69.228C50.9681 67.6341 49.676 66.342 48.0821 66.342C46.4882 66.342 45.1961 67.6341 45.1961 69.228C45.1961 70.8219 46.4882 72.114 48.0821 72.114C49.676 72.114 50.9681 70.8219 50.9681 69.228ZM3.34928 69.228C3.34928 67.6341 4.64139 66.342 6.23528 66.342C7.82917 66.342 9.12128 67.6341 9.12128 69.228C9.12128 70.8219 7.82917 72.114 6.23528 72.114C6.13567 72.114 6.03723 72.1089 5.94021 72.0991C4.48492 71.9513 3.34928 70.7223 3.34928 69.228ZM45.9177 13.4589V7.68693H48.8037V13.4589H45.9177ZM45.9177 14.9019V18.1487H48.8037V14.9019H45.9177ZM25.0439 43.7754L23.843 46.2733C22.6792 48.694 19.0419 47.8651 19.0419 45.1791V41.4503H9.48203V46.6411L13.2512 47.3264C14.9878 47.6421 15.873 49.5966 14.9649 51.1101L13.9898 52.7353L18.2356 54.1506L17.323 56.8885L12.6505 55.331C11.1179 54.8201 10.4525 53.0214 11.2837 51.6361L12.2218 50.0725L9.48203 49.5744V62.3737C9.48203 62.9715 9.96657 63.456 10.5643 63.456H25.2781L25.9163 62.0733L23.8367 60.4097C22.9472 59.698 22.6442 58.479 23.0972 57.4337L25.1132 52.7813L27.7613 53.9288L25.8548 58.3283L27.9397 59.9962C28.8465 60.7216 29.1416 61.9719 28.655 63.0263L28.4567 63.456H40.5065C41.1042 63.456 41.5887 62.9715 41.5887 62.3737V41.4503H31.3074V45.495C31.3074 48.1389 27.7593 49.0051 26.541 46.6587L25.0439 43.7754ZM31.3074 38.5643H41.5887V32.7923C41.5887 32.1946 41.1042 31.71 40.5065 31.71H31.3074V38.5643ZM21.9279 31.71H28.4214V44.0174L27.2726 41.805C26.3136 39.9579 23.6574 39.9988 22.7556 41.8745L21.9279 43.5962V31.71ZM19.0419 31.71H10.5643C9.96657 31.71 9.48203 32.1946 9.48203 32.7923V38.5643H19.0419V31.71ZM67.133 46.2733L68.3339 43.7754L69.831 46.6587C71.0493 49.0051 74.5974 48.1389 74.5974 45.495V41.4503H84.8787V62.3737C84.8787 62.9715 84.3942 63.456 83.7965 63.456H53.8543C53.2565 63.456 52.772 62.9715 52.772 62.3737V41.4503H62.3319V45.1791C62.3319 47.8651 65.9692 48.694 67.133 46.2733ZM84.8787 38.5643H74.5974V31.71H83.7965C84.3942 31.71 84.8787 32.1946 84.8787 32.7923V38.5643ZM71.7114 31.71H65.2179V43.5962L66.0456 41.8745C66.9474 39.9988 69.6036 39.9579 70.5626 41.805L71.7114 44.0174V31.71ZM53.8543 31.71H62.3319V38.5643H52.772V32.7923C52.772 32.1946 53.2565 31.71 53.8543 31.71Z" fill="url(#paint0_linear)"/>
<defs>
<linearGradient id="paint0_linear" x1="12.1952" y1="-2.59205e-06" x2="93.5367" y2="75.0844" gradientUnits="userSpaceOnUse">
<stop stop-color="#F91DF0"/>
<stop offset="0.677083" stop-color="#56CCF2"/>
</linearGradient>
</defs>
</svg>
