<svg width="76" height="75" viewBox="0 0 76 75" fill="none" xmlns="http://www.w3.org/2000/svg">
<path fill-rule="evenodd" clip-rule="evenodd" d="M72.8633 14.3555C72.8633 20.9894 67.4855 26.3672 60.8516 26.3672C54.2177 26.3672 48.8398 20.9894 48.8398 14.3555C48.8398 7.72158 54.2177 2.34375 60.8516 2.34375C67.4855 2.34375 72.8633 7.72158 72.8633 14.3555ZM68.1758 26.7045V48.0469H41.5156V26.6602H53.4532C52.2573 25.9396 51.1751 25.0496 50.2397 24.0234H33.8408C34.0271 24.8778 34.1418 25.7589 34.1785 26.6602H35.6562C37.5979 26.6602 39.1719 28.2342 39.1719 30.1758C39.1719 32.1174 37.5979 33.6914 35.6562 33.6914H34.1914V44.7867C34.1914 47.0813 33.4779 49.2164 32.2599 50.9766H73.1562V25.7812C73.1562 24.8319 72.4036 24.0583 71.4624 24.0246C70.5079 25.0714 69.4006 25.9765 68.1758 26.7045ZM46.4961 14.3555C46.4961 17.0309 47.228 19.5354 48.5025 21.6797H33.1275C30.8901 16.0174 25.3679 12.0117 18.9101 12.0117H15.9208C7.40413 12.0117 0.5 18.9159 0.5 27.4325V37.6465C0.5 44.3634 4.17554 50.2219 9.62505 53.3203H5.62695C4.17073 53.3203 2.99023 54.5008 2.99023 55.957V75H29.6504H33.459H64.3672V72.6562C64.3672 69.9056 62.1374 67.6758 59.3867 67.6758H44.3338C43.7867 64.8384 41.2901 62.6953 38.293 62.6953H34.1222C34.0748 62.2969 34.0035 61.9058 33.9098 61.5234H71.3984C73.6637 61.5234 75.5 59.6871 75.5 57.4219V25.7812C75.5 24.0849 74.4701 22.629 73.0015 22.0048C74.3986 19.7903 75.207 17.1673 75.207 14.3555C75.207 6.42716 68.7799 0 60.8516 0C52.9233 0 46.4961 6.42716 46.4961 14.3555ZM69.0044 10.6431L57.4824 22.1651L53.1382 17.8208L54.7955 16.1635L57.4824 18.8505L67.3472 8.98579L69.0044 10.6431ZM71.3984 59.1797H33.0018C31.8843 57.1279 30.0561 55.5192 27.8478 54.6841C28.6436 54.3186 29.3877 53.8592 30.066 53.3203H73.1562V57.4219C73.1562 58.3927 72.3692 59.1797 71.3984 59.1797ZM38.293 65.0391C39.9875 65.0391 41.4236 66.1457 41.9179 67.6758H36.9746V65.0391H38.293ZM36.9746 71.4844V70.0195H59.3867C60.8429 70.0195 62.0234 71.2 62.0234 72.6562H36.7746C36.9041 72.2897 36.9746 71.8953 36.9746 71.4844ZM34.6309 71.4844C34.6309 72.1316 34.1062 72.6562 33.459 72.6562H29.6504C24.1491 72.6562 19.6895 68.1966 19.6895 62.6953V56.8359V55.6641H22.015L22.9109 56.176L22.9313 56.1949C24.133 57.3041 24.8164 58.865 24.8164 60.5004V63.3818L22.5229 65.6753L24.1802 67.3326L26.4737 65.0391H34.6309V71.4844ZM19.6895 69.9207C20.4518 70.9699 21.3758 71.8939 22.425 72.6562H19.6895V69.9207ZM17.3457 56.8359V62.6953V72.6562H14.8555V57.1332C14.8555 56.3647 15.4454 55.7274 16.2074 55.6645C16.8391 55.6823 17.3457 56.1999 17.3457 56.8359ZM18.5176 53.3203C18.3426 53.3203 18.1683 53.3174 17.9947 53.3118L18.3329 49.0841C18.4849 47.1832 16.9833 45.5566 15.0764 45.5566C14.3072 45.5566 13.6836 44.9331 13.6836 44.1639V43.5059C13.6836 42.3732 14.6018 41.4551 15.7344 41.4551H17.3457V33.6914H31.8477V43.6148H23.0586V44.9707C23.0586 48.0449 25.5508 50.5371 28.625 50.5371H29.6217C28.0673 52.2456 25.8323 53.3203 23.3516 53.3203H18.5176ZM15.9966 48.8972L15.6635 53.0611C8.36982 51.7192 2.84375 45.3282 2.84375 37.6465V33.6914H14.5625H15.002V39.1721C12.9235 39.5208 11.3398 41.3284 11.3398 43.5059V44.1639C11.3398 46.2275 13.0127 47.9004 15.0764 47.9004C15.6152 47.9004 16.0396 48.36 15.9966 48.8972ZM14.738 31.3477H7.67773V29.1504C7.67773 23.8109 12.0062 19.4824 17.3457 19.4824H18.8105C22.9937 19.4824 26.4456 22.6136 26.9502 26.6602H20.7148C17.8218 26.6602 15.3951 28.657 14.738 31.3477ZM29.3082 26.6602C28.7927 21.3164 24.2895 17.1387 18.8105 17.1387H17.3457C10.7118 17.1387 5.33398 22.5165 5.33398 29.1504V31.3477H2.84375V27.4325C2.84375 20.2103 8.69855 14.3555 15.9208 14.3555H18.9101C25.8431 14.3555 31.5024 19.8089 31.8324 26.6602H29.3082ZM5.33398 55.957C5.33398 55.7952 5.46515 55.6641 5.62695 55.6641H12.8049C12.6159 56.117 12.5117 56.6135 12.5117 57.1332V72.6562H5.33398V55.957ZM20.7148 29.0039H35.6562C36.3035 29.0039 36.8281 29.5286 36.8281 30.1758C36.8281 30.823 36.3035 31.3477 35.6562 31.3477H17.1981C17.7721 29.9713 19.1305 29.0039 20.7148 29.0039ZM26.1822 56.6161C26.8177 57.7981 27.1602 59.1306 27.1602 60.5004V62.6953H31.7563C31.2879 59.7221 29.0657 57.3316 26.1822 56.6161ZM31.7677 45.9586H25.5566C25.9737 47.2551 27.1898 48.1934 28.625 48.1934H31.14C31.4456 47.492 31.6599 46.7419 31.7677 45.9586ZM23.0586 39.5508C23.0586 38.58 23.8456 37.793 24.8164 37.793C25.7872 37.793 26.5742 38.58 26.5742 39.5508H28.918C28.918 37.2855 27.0816 35.4492 24.8164 35.4492C22.5512 35.4492 20.7148 37.2855 20.7148 39.5508H23.0586ZM61.1445 41.1621H48.4004V45.7031H43.8594V29.0039H48.4004V34.2773H61.1445V29.0039H65.832V45.7031H61.1445V41.1621ZM50.7441 43.5059V45.7031H58.8008V43.5059H50.7441ZM58.8008 29.0039H50.7441V31.9336H58.8008V29.0039ZM66.125 55.957C66.125 56.766 65.4692 57.4219 64.6602 57.4219C63.8511 57.4219 63.1953 56.766 63.1953 55.957C63.1953 55.148 63.8511 54.4922 64.6602 54.4922C65.4692 54.4922 66.125 55.148 66.125 55.957ZM69.6406 57.4219C70.4496 57.4219 71.1055 56.766 71.1055 55.957C71.1055 55.148 70.4496 54.4922 69.6406 54.4922C68.8316 54.4922 68.1758 55.148 68.1758 55.957C68.1758 56.766 68.8316 57.4219 69.6406 57.4219Z" fill="url(#paint0_linear)"/>
<defs>
<linearGradient id="paint0_linear" x1="0.5" y1="0" x2="75.5" y2="75" gradientUnits="userSpaceOnUse">
<stop stop-color="#F91DF0"/>
<stop offset="0.677083" stop-color="#56CCF2"/>
</linearGradient>
</defs>
</svg>
