<svg width="76" height="75" viewBox="0 0 76 75" fill="none" xmlns="http://www.w3.org/2000/svg">
<path fill-rule="evenodd" clip-rule="evenodd" d="M0.499947 0H56.4126C62.995 0 68.2884 5.4227 68.2884 12.0589C68.2884 13.7565 67.9421 15.3759 67.3157 16.8454C72.1114 18.7964 75.5 23.4515 75.5 28.9082C75.5 33.8166 72.7539 38.0792 68.7164 40.3036C69.3661 41.635 69.7307 43.1304 69.7307 44.7115C69.7307 50.2939 65.1859 54.8077 59.5938 54.8077C58.2992 54.8077 57.0611 54.5658 55.9228 54.1251C54.9833 55.0822 53.7766 55.7764 52.423 56.08V63.4615H55.4878V61.8389C55.4878 59.6149 57.2802 57.9505 59.3298 57.7725C63.3906 57.4197 66.1605 56.1721 68.0913 54.5811C70.0309 52.9828 71.2213 50.957 71.9839 48.8981L74.6889 49.9C73.8014 52.2964 72.3599 54.8015 69.9257 56.8073C67.4827 58.8205 64.1368 60.2504 59.5795 60.6463C58.8516 60.7095 58.3725 61.275 58.3725 61.8389V63.4615H69.7307C72.917 63.4615 75.4999 66.0445 75.4999 69.2308C75.4999 72.417 72.917 75 69.7307 75H48.0961H27.9037H6.26918C3.14324 75 0.597965 72.5139 0.502711 69.4111H0.499947V69.2308V0ZM43.7691 49.0385C43.7691 52.5371 46.2374 55.4839 49.5384 56.122V63.4615H48.0961H27.9037H6.26918C5.21835 63.4615 4.23314 63.7425 3.38456 64.2334V2.88462H13.4807V30.5925L6.26914 37.804V43.9338L3.98726 46.2157L6.02699 48.2554L8.30887 45.9736H14.0781L25.0191 35.0325V2.88462H48.7053C47.7434 3.71864 46.9149 4.70514 46.2564 5.80585C45.9665 5.78161 45.6733 5.76925 45.3773 5.76925C39.7357 5.76925 35.1154 10.2638 35.1154 15.8654C35.1154 19.7605 37.3494 23.1203 40.6073 24.8059C37.3126 26.8397 35.1154 30.4691 35.1154 34.6154C35.1154 40.226 39.1386 44.8902 44.4604 45.9351C44.0169 46.8769 43.7691 47.93 43.7691 49.0385ZM67.0821 37.9064C70.3822 36.2013 72.6154 32.8043 72.6154 28.9082C72.6154 23.3184 68.0093 18.75 62.2814 18.75C61.0144 18.75 59.804 18.9735 58.6866 19.3811L57.6981 16.6711C59.1282 16.1495 60.6729 15.8654 62.2814 15.8654C63.1474 15.8654 63.9944 15.9477 64.8148 16.105L64.5441 15.9794C65.0947 14.7929 65.4038 13.465 65.4038 12.0589C65.4038 6.96832 61.3548 2.88462 56.4126 2.88462C53.4974 2.88462 50.8966 4.30111 49.2494 6.51306C49.883 6.7672 50.4853 7.08189 51.0485 7.44995L49.4707 9.86476C48.3015 9.10078 46.8958 8.65386 45.3773 8.65386C41.277 8.65386 38 11.9083 38 15.8654C38 19.8225 41.277 23.0769 45.3773 23.0769V23.1534C45.8179 23.1029 46.2659 23.0769 46.72 23.0769C49.8976 23.0769 52.7807 24.3488 54.8762 26.4075L52.8546 28.4652C51.2786 26.9168 49.1139 25.9615 46.72 25.9615C41.8952 25.9615 38 29.8449 38 34.6154C38 39.3506 41.8378 43.2118 46.6132 43.2686C47.799 42.3645 49.2748 41.8269 50.8813 41.8269V44.7115C48.57 44.7115 46.6537 46.625 46.6537 49.0385C46.6537 51.4519 48.57 53.3654 50.8813 53.3654C51.767 53.3654 52.5918 53.0869 53.2745 52.606C52.2876 51.8214 51.4512 50.8571 50.8154 49.7632L53.3094 48.3137C54.564 50.4724 56.908 51.9231 59.5938 51.9231C63.6055 51.9231 66.8461 48.688 66.8461 44.7115C66.8461 40.7351 63.6055 37.5 59.5938 37.5V34.6154C62.5577 34.6154 65.2274 35.8834 67.0821 37.9064ZM16.3653 2.88462H22.1345V8.47355H16.3653V2.88462ZM3.38456 69.2308L3.38456 69.2296C3.3852 67.637 4.67644 66.3461 6.26918 66.3461C7.86231 66.3461 9.15379 67.6376 9.15379 69.2308C9.15379 70.8239 7.86231 72.1154 6.26918 72.1154C4.67644 72.1154 3.3852 70.8245 3.38456 69.2319L3.38456 69.2308ZM9.15376 43.0889H12.8833L18.8475 37.1247C16.7947 36.9737 15.0603 35.6768 14.2814 33.8712L9.15376 38.9989V43.0889ZM19.25 26.3221C18.1895 26.3221 17.2002 26.6274 16.3653 27.1548V17.3978H22.1345V27.1547C21.2997 26.6273 20.3105 26.3221 19.25 26.3221ZM16.3653 14.5132H22.1345V11.3582H16.3653V14.5132ZM22.9063 66.3461H11.2666C11.7575 67.1947 12.0384 68.1799 12.0384 69.2308C12.0384 70.2816 11.7575 71.2668 11.2666 72.1154H22.9063C22.4155 71.2668 22.1345 70.2816 22.1345 69.2308C22.1345 68.1799 22.4155 67.1947 22.9063 66.3461ZM64.7333 66.3461H53.0935C53.5844 67.1947 53.8654 68.1799 53.8654 69.2308C53.8654 70.2816 53.5844 71.2668 53.0935 72.1154H64.7333C64.2424 71.2668 63.9615 70.2816 63.9615 69.2308C63.9615 68.1799 64.2424 67.1947 64.7333 66.3461ZM69.7307 72.1154C71.3238 72.1154 72.6153 70.8239 72.6153 69.2308C72.6153 67.6376 71.3238 66.3461 69.7307 66.3461C68.1376 66.3461 66.8461 67.6376 66.8461 69.2308C66.8461 70.8239 68.1376 72.1154 69.7307 72.1154ZM50.9807 69.2308C50.9807 67.6376 49.6893 66.3461 48.0961 66.3461C46.503 66.3461 45.2115 67.6376 45.2115 69.2308C45.2115 70.8239 46.503 72.1154 48.0961 72.1154C49.6893 72.1154 50.9807 70.8239 50.9807 69.2308ZM42.3269 69.2308C42.3269 68.1799 42.6078 67.1947 43.0987 66.3461H32.9012C33.392 67.1947 33.673 68.1799 33.673 69.2308C33.673 70.2816 33.392 71.2668 32.9012 72.1154H43.0987C42.6078 71.2668 42.3269 70.2816 42.3269 69.2308ZM27.9037 66.3461C26.3106 66.3461 25.0191 67.6376 25.0191 69.2308C25.0191 70.8239 26.3106 72.1154 27.9037 72.1154C29.4969 72.1154 30.7884 70.8239 30.7884 69.2308C30.7884 67.6376 29.4969 66.3461 27.9037 66.3461ZM19.25 34.2548C20.644 34.2548 21.774 33.1248 21.774 31.7308C21.774 30.3368 20.644 29.2067 19.25 29.2067C17.856 29.2067 16.726 30.3368 16.726 31.7308C16.726 33.1248 17.856 34.2548 19.25 34.2548ZM72.6153 41.8269V46.1538H75.4999V41.8269H72.6153ZM30.0294 40.5924L39.2539 55.3971C39.8525 56.3578 39.1617 57.6022 38.0298 57.6022H19.5807C18.4488 57.6022 17.758 56.3578 18.3566 55.3971L27.5811 40.5925C28.1457 39.6863 29.4648 39.6864 30.0294 40.5924ZM25.1329 39.067C26.8266 36.3487 30.7839 36.3487 32.4776 39.067L41.7021 53.8716C43.4979 56.7538 41.4256 60.4868 38.0298 60.4868H19.5807C16.1849 60.4868 14.1125 56.7538 15.9084 53.8717L25.1329 39.067ZM27.1827 50.4808V44.7115H30.0673V50.4808H27.1827ZM27.1827 51.9231V55.1683H30.0673V51.9231H27.1827Z" fill="url(#paint0_linear)"/>
<defs>
<linearGradient id="paint0_linear" x1="-2.59284" y1="-2.31959" x2="75.4999" y2="75.0001" gradientUnits="userSpaceOnUse">
<stop stop-color="#F91DF0"/>
<stop offset="0.677083" stop-color="#56CCF2"/>
</linearGradient>
</defs>
</svg>
