<svg width="76" height="75" viewBox="0 0 76 75" fill="none" xmlns="http://www.w3.org/2000/svg">
<path fill-rule="evenodd" clip-rule="evenodd" d="M72.8086 12.9626H3.19137V68.5407C3.19137 70.5226 4.798 72.1292 6.77989 72.1292H69.2201C71.202 72.1292 72.8086 70.5226 72.8086 68.5407V12.9626ZM72.8086 10.0918H3.19137V6.45933C3.19137 4.47745 4.79801 2.87081 6.77989 2.87081H69.2201C71.202 2.87081 72.8086 4.47745 72.8086 6.45933V10.0918ZM75.6794 6.45933C75.6794 2.89194 72.7875 0 69.2201 0H6.77989C3.2125 0 0.320557 2.89194 0.320557 6.45933V68.5407C0.320557 72.1081 3.2125 75 6.77989 75H69.2201C72.7875 75 75.6794 72.1081 75.6794 68.5407V6.45933ZM67.7847 44.795C67.7847 42.9183 65.5511 41.9399 64.1717 43.2123L60.1377 46.9333C57.0373 49.7931 52.254 49.7707 49.1806 46.8818C47.0897 44.9165 43.7982 45.0306 41.8484 47.1359L38.7542 50.4768C34.9829 54.5488 28.9384 55.5624 24.0451 52.9433L22.6283 52.1851C17.7149 49.5552 11.6068 51.7912 9.55241 56.9717L9.39294 57.3739C9.32615 57.5423 9.29185 57.7218 9.29185 57.903V60.4353L10.2959 59.7616C14.5561 56.9031 20.1073 56.8488 24.4225 59.6235C28.1104 61.9947 32.913 61.6856 36.2665 58.8613L39.3976 56.2243C42.8463 53.3198 47.7922 53.0226 51.5639 55.4932C54.2781 57.2712 57.8381 57.0545 60.3166 54.9604L67.7847 48.6505V44.795ZM67.7847 52.4089L62.1694 57.1532C58.7208 60.067 53.7674 60.3686 49.9908 57.8947C47.2801 56.1191 43.7255 56.3327 41.2469 58.4201L38.1159 61.0571C33.7991 64.6927 27.617 65.0905 22.8699 62.0382C19.5176 59.8827 15.205 59.9248 11.8955 62.1455L9.29185 63.8925V66.0287C9.29185 66.8214 9.93451 67.4641 10.7273 67.4641H66.3493C67.142 67.4641 67.7847 66.8214 67.7847 66.0287V52.4089ZM62.2253 41.1021C65.4439 38.1333 70.6555 40.4162 70.6555 44.795V66.0287C70.6555 68.407 68.7275 70.3349 66.3493 70.3349H10.7273C8.349 70.3349 6.42104 68.407 6.42104 66.0287V57.903C6.42104 57.3595 6.52393 56.8209 6.72429 56.3156L6.88377 55.9135C9.57022 49.1389 17.5577 46.215 23.983 49.654L25.3998 50.4123C29.1418 52.4151 33.764 51.64 36.6479 48.5261L39.7421 45.1852C42.7749 41.9105 47.8946 41.7331 51.1468 44.79C53.1227 46.6473 56.198 46.6618 58.1913 44.8231L62.2253 41.1021ZM13.957 21.5311C13.957 19.351 15.7243 17.5837 17.9044 17.5837C18.2377 17.5837 18.5594 17.6247 18.8657 17.7012L19.5617 14.9161C19.0297 14.7831 18.4742 14.7129 17.9044 14.7129C14.1388 14.7129 11.0862 17.7655 11.0862 21.5311C11.0862 25.2967 14.1388 28.3493 17.9044 28.3493C21.6699 28.3493 24.7226 25.2967 24.7226 21.5311C24.7226 21.0269 24.6676 20.5339 24.5628 20.0583L21.7592 20.6762C21.8196 20.9502 21.8517 21.236 21.8517 21.5311C21.8517 23.7112 20.0844 25.4785 17.9044 25.4785C15.7243 25.4785 13.957 23.7112 13.957 21.5311ZM38.0968 17.5837C35.839 17.5837 34.0526 19.375 34.0526 21.5311C34.0526 23.6871 35.839 25.4785 38.0968 25.4785C39.2132 25.4785 40.2177 25.039 40.9477 24.3307L42.9469 26.391C41.6976 27.6032 39.9821 28.3493 38.0968 28.3493C34.3019 28.3493 31.1817 25.3207 31.1817 21.5311C31.1817 17.7415 34.3019 14.7129 38.0968 14.7129C38.6726 14.7129 39.234 14.7826 39.7719 14.9146L39.0874 17.7027C38.772 17.6252 38.4403 17.5837 38.0968 17.5837ZM54.1483 21.5311C54.1483 19.351 55.9156 17.5837 58.0956 17.5837C58.3907 17.5837 58.6765 17.6158 58.9505 17.6762L59.5684 14.8727C59.0929 14.7679 58.5998 14.7129 58.0956 14.7129C54.3301 14.7129 51.2775 17.7655 51.2775 21.5311C51.2775 25.2967 54.3301 28.3493 58.0956 28.3493C61.8612 28.3493 64.9138 25.2967 64.9138 21.5311C64.9138 19.9323 64.3618 18.4586 63.439 17.2956L61.1902 19.0801C61.7247 19.7537 62.043 20.6032 62.043 21.5311C62.043 23.7112 60.2757 25.4785 58.0956 25.4785C55.9156 25.4785 54.1483 23.7112 54.1483 21.5311ZM22.8583 32.393H13.5198V29.5222H22.8583V32.393ZM14.979 37.6459H21.3992V34.7751H14.979V37.6459ZM42.7029 32.393H33.3644V29.5222H42.7029V32.393ZM34.8234 37.6459H41.2436V34.7751H34.8234V37.6459ZM62.8389 32.393H53.5004V29.5222H62.8389V32.393ZM54.9596 37.6459H61.3798V34.7751H54.9596V37.6459ZM9.29178 7.53588H5.70327V4.66507H9.29178V7.53588ZM12.1627 7.53588H15.7512V4.66507H12.1627V7.53588ZM21.8517 7.53588H18.2632V4.66507H21.8517V7.53588ZM60.2489 7.53588L70.2967 7.53588V4.66507L60.2489 4.66507V7.53588Z" fill="url(#paint0_linear)"/>
<defs>
<linearGradient id="paint0_linear" x1="-2.83734" y1="-3.15789" x2="75.3206" y2="75" gradientUnits="userSpaceOnUse">
<stop stop-color="#F91DF0"/>
<stop offset="0.677083" stop-color="#56CCF2"/>
</linearGradient>
</defs>
</svg>
